<svg xmlns="http://www.w3.org/2000/svg" width="67.361" height="46.191" viewBox="0 0 67.361 46.191"><defs><style>.a{fill:#bdbec1;}.a,.b,.c,.d,.e{fill-rule:evenodd;}.b,.f{fill:#f38428;}.d{fill:#e1e0e1;}.e{fill:#474647;}</style></defs><path class="a" d="M59.128,1.23c-9.517,4.542-8.641,11.942-9.44,15.156C49.39,11.507,50.044,3.03,59.128,1.23Z" transform="translate(-1.871 -0.046)"/><path class="b" d="M57.628,0C47.534,4.186,48.679,11.75,48.2,15.156,47.9,10.277,48.553,1.8,57.628,0Z" transform="translate(-1.815)"/><path class="c" d="M66.572,7.69c-6.861,3.262-6.226,8.593-6.8,10.913C59.557,15.09,60.028,8.979,66.572,7.69Z" transform="translate(-2.252 -0.29)"/><path class="b" d="M65.492,6.8c-7.275,3.012-6.447,8.459-6.794,10.913C58.477,14.2,58.949,8.089,65.492,6.8Z" transform="translate(-2.211 -0.256)"/><path class="c" d="M46.71,5.73c4.523,9.546,11.893,8.661,15.1,9.469C56.95,15.488,48.5,14.833,46.71,5.73Z" transform="translate(-1.761 -0.216)"/><path class="b" d="M45.46,6.53c4.167,10.123,11.711,8.978,15.1,9.459C55.7,16.288,47.24,15.633,45.46,6.53Z" transform="translate(-1.714 -0.246)"/><path class="a" d="M50.51,5.419c10.355,1.9,11.432,9.277,13.03,12.173C62.568,12.8,59.739,4.783,50.51,5.419Z" transform="translate(-1.904 -0.203)"/><path class="b" d="M53.64,4.14C64.024,7.547,63.456,15.168,64.2,18.526,64.129,13.638,62.83,5.237,53.64,4.14Z" transform="translate(-2.022 -0.156)"/><path class="d" d="M50.906,10.33a18.276,18.276,0,0,0-.558,2.252H49.77a16.758,16.758,0,0,1,.375-2.252Z" transform="translate(-1.876 -0.389)"/><path class="e" d="M63.612,9.7a9.914,9.914,0,0,0-1.424,1.52H61.61v-.433A6.755,6.755,0,0,1,62.582,9.7Z" transform="translate(-2.322 -0.366)"/><path class="c" d="M5.277,20.368V32.4a2.67,2.67,0,0,1-.587,1.886,1.94,1.94,0,0,1-1.5.645A1.9,1.9,0,0,1,1.7,34.273,2.8,2.8,0,0,1,1.129,32.4v-11.9a4.062,4.062,0,0,1,.106-.953,3.806,3.806,0,0,0,2.011.529,3.755,3.755,0,0,0,1.934-.52A3.086,3.086,0,0,1,5.277,20.368Z" transform="translate(-0.043 -0.737)"/><path class="c" d="M60.075,32.518a13.119,13.119,0,0,1-2.907,1.761,8.264,8.264,0,0,1-3.156.587,5.9,5.9,0,0,1-2.8-.635,4.665,4.665,0,0,1-1.866-1.713,4.478,4.478,0,0,1-.654-2.348,4.189,4.189,0,0,1,1.086-2.906,5.293,5.293,0,0,1,2.964-1.617c.261-.067.9-.2,1.954-.414s1.934-.4,2.684-.587,1.549-.395,2.426-.654a4.323,4.323,0,0,0-.664-2.406,2.93,2.93,0,0,0-2.425-.77,5,5,0,0,0-2.378.443,3.83,3.83,0,0,0-1.366,1.328,12.393,12.393,0,0,1-.808,1.164,1.332,1.332,0,0,1-1.01.279,1.767,1.767,0,0,1-1.2-.452,1.445,1.445,0,0,1-.51-1.155,3.5,3.5,0,0,1,.771-2.127,5.621,5.621,0,0,1,2.415-1.713,10.959,10.959,0,0,1,4.09-.664,11.529,11.529,0,0,1,4.3.645c.154.067.3.135.443.212l-.048.077-.866,1.636c-1.029,1.963,1.876,1.54,2.685,1.068a2.859,2.859,0,0,0,.279-.173,10.488,10.488,0,0,1,.366,2.954l-.019,2.483-.019,2.271a8.349,8.349,0,0,0,.394,2.444,7.524,7.524,0,0,1,.385,1.636,1.511,1.511,0,0,1-.606,1.164,2.009,2.009,0,0,1-1.357.529,1.848,1.848,0,0,1-1.262-.606A9.342,9.342,0,0,1,60.075,32.518Z" transform="translate(-1.835 -0.675)"/><path class="a" d="M64.844,17.05H66.9c.509,0,.77.077.77.221a4.135,4.135,0,0,1-.847.991c-.568.587-1.144,1.136-1.723,1.665a6.589,6.589,0,0,1-1.2.962,4.015,4.015,0,0,1-1.848.433c-.433,0-.655-.115-.655-.375a2.221,2.221,0,0,1,.395-.895l.684-1.28a4.016,4.016,0,0,1,1.039-1.415A2.273,2.273,0,0,1,64.844,17.05Z" transform="translate(-2.314 -0.643)"/><path class="b" d="M59.968,26.84a22.414,22.414,0,0,1-2.657.7c-1.163.25-1.962.433-2.406.549a3.163,3.163,0,0,0-1.28.693A1.739,1.739,0,0,0,53.02,30.2a2.141,2.141,0,0,0,.711,1.617,2.648,2.648,0,0,0,1.867.654,4.761,4.761,0,0,0,2.27-.539,3.561,3.561,0,0,0,1.53-1.4,6.34,6.34,0,0,0,.569-3.108V26.84Z" transform="translate(-1.999 -1.012)"/><path class="c" d="M44.637,21V33.087a12.455,12.455,0,0,1-.444,3.561,5.7,5.7,0,0,1-1.415,2.473,5.858,5.858,0,0,1-2.54,1.443,13.726,13.726,0,0,1-3.908.472,11.57,11.57,0,0,1-3.84-.6,6.645,6.645,0,0,1-2.6-1.559,2.815,2.815,0,0,1-.9-1.953,1.635,1.635,0,0,1,.51-1.241A1.819,1.819,0,0,1,30.75,35.2a2.054,2.054,0,0,1,1.6.808c.22.269.452.549.693.828a3.7,3.7,0,0,0,.789.712,3,3,0,0,0,1.039.443,6.094,6.094,0,0,0,1.394.144,5.689,5.689,0,0,0,2.5-.443,2.626,2.626,0,0,0,1.241-1.261A5.155,5.155,0,0,0,40.43,34.7c.039-.616.067-1.6.088-2.964A6.719,6.719,0,0,1,38.3,33.78a5.95,5.95,0,0,1-2.984.7,6.208,6.208,0,0,1-3.638-1.068,6.885,6.885,0,0,1-2.4-2.983,11.207,11.207,0,0,1-.827-4.436,10.558,10.558,0,0,1,.5-3.378,7.238,7.238,0,0,1,1.454-2.55,6.118,6.118,0,0,1,2.175-1.559,6.716,6.716,0,0,1,2.7-.529,6.454,6.454,0,0,1,3.051.674,7.455,7.455,0,0,1,2.406,2.127v-.558a2.455,2.455,0,0,1,.53-1.684,1.748,1.748,0,0,1,1.366-.587,1.624,1.624,0,0,1,1.6.779A5.288,5.288,0,0,1,44.637,21Zm-12.02,5.273a5.834,5.834,0,0,0,1.1,3.82,3.593,3.593,0,0,0,2.858,1.3,3.728,3.728,0,0,0,1.945-.558,4.13,4.13,0,0,0,1.5-1.674,5.9,5.9,0,0,0,.577-2.723,6.307,6.307,0,0,0-1.115-3.965,3.555,3.555,0,0,0-2.935-1.415A3.435,3.435,0,0,0,33.7,22.415,6.048,6.048,0,0,0,32.617,26.274Z" transform="translate(-1.073 -0.677)"/><path class="c" d="M13.658,20.25v.5a7.4,7.4,0,0,1,2.387-2.127,6.376,6.376,0,0,1,2.992-.674,5.962,5.962,0,0,1,2.926.712,4.544,4.544,0,0,1,1.934,2.03,4.808,4.808,0,0,1,.529,1.646,17.657,17.657,0,0,1,.125,2.252v7.747a2.71,2.71,0,0,1-.577,1.886,1.859,1.859,0,0,1-1.482.645,1.918,1.918,0,0,1-1.5-.654,2.771,2.771,0,0,1-.578-1.876V25.4a7.041,7.041,0,0,0-.568-3.147,2.32,2.32,0,0,0-2.271-1.087,3.347,3.347,0,0,0-2.021.664,3.738,3.738,0,0,0-1.329,1.819,13.136,13.136,0,0,0-.307,3.474v5.216a2.68,2.68,0,0,1-.587,1.9,1.941,1.941,0,0,1-1.511.635,1.886,1.886,0,0,1-1.471-.654,2.771,2.771,0,0,1-.577-1.876V20.308a2.6,2.6,0,0,1,.519-1.771,1.751,1.751,0,0,1,1.406-.587,1.85,1.85,0,0,1,1.7,1.03A2.835,2.835,0,0,1,13.658,20.25Z" transform="translate(-0.368 -0.677)"/><path class="b" d="M3.194,19.017A3.3,3.3,0,0,1,.942,18.2,2.874,2.874,0,0,1,0,15.909a2.877,2.877,0,0,1,.962-2.223,3.25,3.25,0,0,1,2.232-.876,3.308,3.308,0,0,1,2.185.8,2.8,2.8,0,0,1,.953,2.3A2.892,2.892,0,0,1,5.4,18.2,3.238,3.238,0,0,1,3.194,19.017Z" transform="translate(0 -0.483)"/><g transform="translate(1.674 41.081)"><path class="b" d="M2.876,46.877a1.184,1.184,0,0,0,.269.019c.741,0,1.27-.5,1.27-1.732,0-1.049-.472-1.569-1.193-1.569a1.482,1.482,0,0,0-.346.029ZM1.74,42.806a8.419,8.419,0,0,1,1.318-.1,2.7,2.7,0,0,1,1.789.491,2.381,2.381,0,0,1,.76,1.953,2.624,2.624,0,0,1-.779,2.079,3.014,3.014,0,0,1-1.991.568,8.868,8.868,0,0,1-1.1-.067V42.806Z" transform="translate(-1.74 -42.691)"/><rect class="f" width="1.136" height="5.014" transform="translate(10.749 0.048)"/><path class="b" d="M25.108,47.559a4.475,4.475,0,0,1-1.415.241,2.416,2.416,0,0,1-1.761-.6,2.622,2.622,0,0,1-.693-1.915,2.427,2.427,0,0,1,2.579-2.6,2.85,2.85,0,0,1,1.155.2l-.213.953a2.018,2.018,0,0,0-.913-.173c-.8,0-1.4.472-1.4,1.617,0,1.068.548,1.578,1.232,1.578a.819.819,0,0,0,.355-.048V45.769h-.6v-.9h1.673v2.694Z" transform="translate(-2.475 -42.69)"/><rect class="f" width="1.144" height="5.014" transform="translate(29.639 0.048)"/><path class="b" d="M44.167,43.741H43.021v4.013H41.887V43.741H40.76v-1h3.407Z" transform="translate(-3.211 -42.692)"/><path class="b" d="M53.245,45.723l-.212-1-.221-1.059H52.8l-.2,1.059-.23,1Zm1.607,2.03H53.678l-.289-1.164H52.234l-.269,1.164H50.81l1.319-5.014h1.443Z" transform="translate(-3.59 -42.692)"/><path class="b" d="M64.881,47.754H62.09V42.74h1.136v4.051h1.654Z" transform="translate(-4.015 -42.692)"/></g><path class="c" d="M67.593,13.893h.385a.61.61,0,0,0,.385-.087.266.266,0,0,0,.1-.221.226.226,0,0,0-.048-.154.3.3,0,0,0-.135-.106,1.167,1.167,0,0,0-.318-.029h-.367v.6Zm-.318,1.116h.318v-.847h.193a.46.46,0,0,1,.25.067,1.673,1.673,0,0,1,.337.462l.173.318h.395l-.241-.385a1.684,1.684,0,0,0-.3-.395.406.406,0,0,0-.165-.106.662.662,0,0,0,.415-.183.55.55,0,0,0,.154-.385.489.489,0,0,0-.1-.289.5.5,0,0,0-.25-.192,1.623,1.623,0,0,0-.5-.048h-.684v1.982Zm.742-2.521a1.678,1.678,0,0,0-.76.192,1.519,1.519,0,0,0-.577.577,1.55,1.55,0,0,0-.2.77,1.576,1.576,0,0,0,.2.77,1.464,1.464,0,0,0,.568.568,1.587,1.587,0,0,0,.77.2,1.548,1.548,0,0,0,.76-.2,1.464,1.464,0,0,0,.568-.568,1.578,1.578,0,0,0,.2-.77,1.551,1.551,0,0,0-.2-.77,1.391,1.391,0,0,0-.577-.577A1.639,1.639,0,0,0,68.018,12.488Zm0-.308a1.848,1.848,0,0,1,.9.241,1.675,1.675,0,0,1,.683.683,1.862,1.862,0,0,1,.01,1.848,1.792,1.792,0,0,1-.683.683,1.83,1.83,0,0,1-.914.241,1.894,1.894,0,0,1-.924-.241,1.792,1.792,0,0,1-.683-.683,2,2,0,0,1-.241-.924,1.9,1.9,0,0,1,.251-.924,1.667,1.667,0,0,1,.682-.683A1.886,1.886,0,0,1,68.018,12.18Z" transform="translate(-2.494 -0.459)"/></svg>