<?xml version="1.0" encoding="UTF-8"?>
<!DOCTYPE svg PUBLIC "-//W3C//DTD SVG 1.1//EN" "http://www.w3.org/Graphics/SVG/1.1/DTD/svg11.dtd">
<!-- Creator: CorelDRAW 2020 (64 Bit) -->
<svg xmlns="http://www.w3.org/2000/svg" xml:space="preserve" width="13mm" height="13mm" version="1.1" style="shape-rendering:geometricPrecision; text-rendering:geometricPrecision; image-rendering:optimizeQuality; fill-rule:evenodd; clip-rule:evenodd"
viewBox="0 0 164.8 164.8"
 xmlns:xlink="http://www.w3.org/1999/xlink"
 xmlns:xodm="http://www.corel.com/coreldraw/odm/2003">
 <defs>
  <style type="text/css">
   <![CDATA[
    .str0 {stroke:#144170;stroke-width:0.97;stroke-miterlimit:22.9256}
    .fil0 {fill:#144170}
   ]]>
  </style>
   <clipPath id="id0">
    <rect width="164.8" height="164.8"/>
   </clipPath>
 </defs>
 <g id="Camada_x0020_1">
  <metadata id="CorelCorpID_0Corel-Layer"/>
  <g style="clip-path:url(#id0)">
   <image id="list.png" x="-0" y="0" width="164.8" height="164.8" xlink:href="concursos-icon_Images\concursos-icon_ImgID1.png"/>
  </g>
  <g id="_1376831478784">
   <path class="fil0 str0" d="M28.65 10.94l74.35 0 0 32.51c0,0.74 0.22,0.97 0.97,0.97l32.51 0 0 110.41 -107.83 0 0 -143.88zm79.83 3.54c2.19,1.46 3.24,2.89 4.9,4.43 0.74,0.68 1.04,0.76 1.78,1.44 2.27,2.1 4.32,4.19 6.59,6.29l8.21 7.57c0.75,0.73 1.04,0.79 1.77,1.44 1.02,0.9 2.43,2.24 3.14,3.3l-26.4 0 0 -24.46zm-85.3 -4.18l0 144.53c0,4.21 3.45,5.47 7.73,5.47l103.32 0c4.53,0 7.73,-1.33 7.73,-6.44l0 -113.95c0,-3.3 -3.84,-5.27 -5.88,-7.32l-4.5 -4.19c-0.83,-0.84 -1.35,-1.46 -2.31,-2.2 -1.85,-1.43 -2.89,-2.8 -4.74,-4.27l-9.21 -8.49c-1.79,-1.77 -7.9,-7.97 -9.73,-7.97l-77.25 0c-3.1,0 -5.15,2.86 -5.15,4.83z"/>
   <path class="fil0" d="M66.95 72.42c0,2.3 1.87,2.9 4.18,2.9 6.47,0 54.2,0.55 56.5,-0.48 2.21,-0.99 1.82,-4.99 -1.13,-4.99l-56.97 0c-1.56,0 -2.57,1.02 -2.57,2.57z"/>
   <path class="fil0 str0" d="M66.95 62.12c0,2.3 1.87,2.9 4.18,2.9l53.43 0c6.7,0 4.21,-5.47 2.25,-5.47l-57.29 0c-1.56,0 -2.57,1.02 -2.57,2.57z"/>
   <path class="fil0" d="M66.95 134.23c0,2.55 2.28,2.9 4.83,2.9 6.18,0 51,0.54 53.28,-0.48 2.21,-0.99 1.82,-4.99 -1.13,-4.99l-54.4 0c-1.56,0 -2.57,1.02 -2.57,2.57z"/>
   <path class="fil0" d="M66.95 123.6c0,2.86 2.01,3.22 4.83,3.22 6.18,0 51,0.54 53.28,-0.48 2.21,-0.99 1.82,-4.99 -1.13,-4.99l-54.4 0c-2.08,0 -2.57,2.23 -2.57,2.25z"/>
   <path class="fil0" d="M44.1 93.35l9.98 0 0 9.98 -9.98 0 0 -9.98zm-5.47 -0.64c0,15.8 -1.6,16.09 13.2,16.09 9.24,0 7.73,-5.31 7.73,-14.81 0,-1.91 -0.38,-3.09 -1.35,-4.12 -0.79,-0.84 -1.97,-2 -3.48,-2l-10.94 0c-1.51,0 -2.63,0.6 -3.46,1.37 -0.66,0.6 -1.69,2.33 -1.69,3.46z"/>
   <path class="fil0" d="M44.1 31.54l9.98 0 0 9.98 -9.98 0 0 -9.98zm-5.47 0c0,15.38 -1.5,15.45 13.84,15.45 8.59,0 7.08,-6.3 7.08,-14.81 0,-3.69 -2.66,-6.12 -4.83,-6.12l-10.94 0c-2.99,0 -5.15,2.5 -5.15,5.47z"/>
   <path class="fil0" d="M44.1 62.12l9.98 0 0 10.3 -9.98 0 0 -10.3zm-5.47 -0.32c0,15.69 -1.7,16.09 13.2,16.09 2.51,0 4.17,-0.24 5.68,-1.4 2.92,-2.25 2.05,-8.54 2.05,-13.4 0,-1.91 -0.42,-3.1 -1.32,-4.15 -0.81,-0.95 -2.08,-1.97 -3.51,-1.97l-10.94 0c-3.1,0 -5.15,2.86 -5.15,4.83z"/>
   <path class="fil0" d="M44.1 124.25l9.98 0 0 9.98 -9.98 0 0 -9.98zm-5.47 0l0 9.98c0,2.52 2.13,5.15 4.51,5.15l11.91 0c2.53,0 4.51,-2.81 4.51,-6.12 0,-4.21 0.71,-10.29 -1.35,-12.49 -0.79,-0.84 -1.97,-2 -3.48,-2l-10.94 0c-2.99,0 -5.15,2.5 -5.15,5.47z"/>
   <path class="fil0" d="M66.95 103.32c0,1.18 0.89,2.57 1.93,2.57l55.69 0c2.26,0 2.94,-5.15 -0.64,-5.15l-54.4 0c-1.56,0 -2.57,1.02 -2.57,2.57z"/>
   <path class="fil0" d="M66.95 93.02c0,1.18 0.89,2.57 1.93,2.57l55.04 0c3.23,0 3.07,-5.15 -0.32,-5.15l-54.08 0c-1.56,0 -2.57,1.02 -2.57,2.57z"/>
   <path class="fil0" d="M66.95 41.2c0,2.86 2.01,3.22 4.83,3.22l18.99 0c7.28,0 5.12,-5.47 2.25,-5.47l-23.5 0c-2.08,0 -2.57,2.23 -2.57,2.25z"/>
   <path class="fil0" d="M66.95 31.22c0,1.68 1.11,2.57 1.93,2.57l24.14 0c3.63,0 2.56,-5.15 0.32,-5.15l-23.82 0c-1.56,0 -2.57,1.02 -2.57,2.57z"/>
  </g>
 </g>
</svg>
