<?xml version="1.0" encoding="UTF-8"?>
<!DOCTYPE svg PUBLIC "-//W3C//DTD SVG 1.1//EN" "http://www.w3.org/Graphics/SVG/1.1/DTD/svg11.dtd">
<!-- Creator: CorelDRAW 2020 (64 Bit) -->
<svg xmlns="http://www.w3.org/2000/svg" xml:space="preserve" width="12.7702mm" height="9.9221mm" version="1.1" style="shape-rendering:geometricPrecision; text-rendering:geometricPrecision; image-rendering:optimizeQuality; fill-rule:evenodd; clip-rule:evenodd"
viewBox="0 0 114.21 88.74"
 xmlns:xlink="http://www.w3.org/1999/xlink"
 xmlns:xodm="http://www.corel.com/coreldraw/odm/2003">
 <defs>
  <style type="text/css">
   <![CDATA[
    .str0 {stroke:#144170;stroke-width:1.58;stroke-miterlimit:22.9256}
    .fil0 {fill:#144170}
   ]]>
  </style>
 </defs>
 <g id="Camada_x0020_1">
  <metadata id="CorelCorpID_0Corel-Layer"/>
  <g id="_1376575601728">
   <path class="fil0 str0" d="M11.69 5.06c1.08,0.52 3.72,0.87 5.06,1.07 10.43,1.51 31.63,1.18 38.54,4.84l0 72.21c-2.48,-1.19 -6.89,-1.78 -10.06,-2.2 -8.43,-1.11 -29.18,-1.38 -33.54,-3.47l0 -72.44zm77.44 69.94c0.78,-3.36 0.68,-6.51 0.68,-9.99 1.52,0 6.22,1.05 8.4,0 -0.72,2.68 -6.76,8.43 -9.08,9.99zm6.81 -13.4c-5.49,0 -6.8,-0.91 -7.95,-0.91 -2.9,0 -1.45,4.76 -2.08,10.64 -0.33,3.1 -1.09,8.55 -4.27,8.67 -6.66,0.26 -18.28,1.03 -22.72,3.17l0 -72.21c4.32,-2.29 14.7,-3.23 21.35,-3.4l5.68 -0.45c2,-0.16 3.84,-0.05 5.8,-0.33 2.49,-0.36 8.75,-0.75 10.77,-1.72l0 47.24c0.01,4.85 -0.89,9.31 -6.59,9.31zm-87.88 -59.04l0 76.3c0,2.22 4.29,2.79 5.96,3.12 4.64,0.93 20.55,2.1 25.61,2.1l-35.2 0.23 0 -74.94c0,-1.69 -3.63,-1.91 -3.63,0l0 76.76c0,1.1 0.72,1.82 1.82,1.82l109 0c1.1,0 1.82,-0.72 1.82,-1.82l0 -76.76c0,-1.69 -3.63,-1.91 -3.63,0l0 74.94 -35.2 -0.23c3.26,0 7.29,0.13 9.92,-1.21 1.66,-0.84 5.45,-3.5 6.72,-4.64l4.09 -3.63c0.74,-0.73 1.02,-1.24 1.7,-1.94 0.76,-0.78 1.12,-1.19 1.81,-2.05l3.01 -4.48c0.91,-1.57 1.59,-3.52 2.49,-5 0.97,-1.59 1.83,-3.37 1.83,-5.89l0 -52.68c0,-3.4 -4.17,-0.97 -7.26,-0.45 -1.99,0.33 -3.87,0.46 -6.04,0.78l-18.72 1.26c-1.87,0.08 -4.44,0.39 -6.17,0.64 -2.05,0.29 -3.86,0.56 -5.78,1.04 -7.11,1.77 -2.83,2.36 -7.38,0.85 -5.36,-1.78 -14.91,-2.83 -20.63,-2.99 -4.95,-0.14 -13.94,-0.77 -18.66,-1.55 -3.28,-0.54 -7.46,-3 -7.46,0.42z"/>
   <path class="fil0 str0" d="M18.96 15.51l22.03 1.59c2.02,0.05 5.3,0.5 7.04,0.91l0 23.39c-2.51,-0.21 -7.64,-1.07 -10.44,-1.14 -2.93,-0.07 -16.89,-0.95 -18.63,-1.36l0 -23.39zm-3.63 -2.5l0 27.7c0,2.51 3.65,1.85 7.36,2.4l6.96 0.54c0.8,0.07 1.68,-0.03 2.49,0.01l13.58 1.18c2.04,0.25 5.94,1.8 5.94,-1.18l0 -27.7c0,-1.95 -5.93,-2.11 -8.04,-2.4l-14.9 -1c-1.15,-0.03 -1.25,-0.23 -2.49,-0.24 -4.08,-0.03 -10.91,-2.04 -10.91,0.69z"/>
   <path class="fil0 str0" d="M62.56 52.3l0 20.44c0,2.91 3.89,1.5 6.17,1.18l10.4 -0.95c2.33,-0.01 3.87,0.05 3.87,-2.04 0,-2.79 -4.62,-1.73 -7.75,-1.4l-6.88 0.61c-0.78,0.11 -1.54,0.28 -2.17,0.33l0 -16.12c3.57,-0.83 10.38,-1.16 14.31,-1.36 0.95,-0.05 0.75,-0.15 1.6,-0.22 0.66,-0.05 1.37,0.02 2.03,-0.01 0.98,-0.05 0.83,-0.18 1.81,-0.23l5.62 -0.29c0.76,-0.1 2.86,-0.37 3.7,-0.39 0,3.46 -0.67,6.13 1.82,6.13 0.83,0 1.82,-0.63 1.82,-1.36l0 -7.27c0,-0.59 -0.75,-1.18 -1.16,-1.35 -0.8,-0.34 -10.14,0.75 -11.79,0.88l-10.11 0.56c-2.66,0.4 -5.8,0.4 -9.63,1.04 -0.66,0.11 -1.82,0.24 -2.31,0.41 -0.54,0.19 -1.32,0.78 -1.32,1.4z"/>
   <path class="fil0 str0" d="M62.56 34.13c0,3.67 2.92,1.91 10.03,1.17l14.04 -0.95c1.39,-0.01 3.31,-0.1 4.71,-0.28 4.97,-0.66 7.56,0.18 7.56,-2.89 0,-0.58 -0.66,-1.2 -1.12,-1.39 -0.64,-0.27 -10.3,0.8 -11.83,0.93 -0.89,0.07 -1.79,-0.05 -2.68,0.05 -3.67,0.41 -8.8,0.48 -12.46,0.94 -2.01,0.25 -8.24,0.48 -8.24,2.43z"/>
   <path class="fil0 str0" d="M15.32 51.16c0,3.12 2.43,2.13 7.36,2.86 2.67,0.39 6.95,0.36 9.43,0.56l13.6 1.16c3.02,0.36 5.94,1.9 5.94,-1.63 0,-1.95 -5.93,-2.11 -8.04,-2.4 -1.68,-0.23 -3.17,-0.16 -4.84,-0.39 -1.12,-0.15 -3.77,-0.4 -5.05,-0.4 -3.21,0.01 -6.95,-0.43 -10.01,-0.66l-7.1 -0.56c-0.57,0.18 -1.28,0.85 -1.28,1.46z"/>
   <path class="fil0 str0" d="M62.56 15.97c0,3.67 2.92,1.91 10.03,1.17 4.03,-0.42 7.92,-0.52 11.78,-0.72l6.98 -0.52c1.32,-0.18 3.03,-0.27 4.54,-0.46 2.19,-0.28 3.02,-0.21 3.02,-2.43 0,-1.9 -2.67,-1.42 -3.38,-1.34l-9.57 0.88c-0.89,0.07 -1.79,-0.05 -2.68,0.04 -0.87,0.1 -1.33,0.2 -2.53,0.19l-4.9 0.33c-1.68,0.25 -3.32,0.21 -5.03,0.42l-6.92 1.03c-0.54,0.19 -1.32,0.78 -1.32,1.4z"/>
   <path class="fil0 str0" d="M15.32 60.25c0,3.12 2.43,2.13 7.36,2.86 2.67,0.39 6.95,0.36 9.43,0.56l13.6 1.16c3.02,0.36 5.94,1.9 5.94,-1.63 0,-0.6 -0.75,-1.16 -1.16,-1.34 -0.52,-0.23 -1.68,-0.35 -2.28,-0.45 -3.82,-0.64 -6.55,-0.61 -9.44,-1 -1.12,-0.15 -3.77,-0.4 -5.05,-0.4 -3.21,0.01 -6.95,-0.43 -10.01,-0.66l-7.1 -0.56c-0.57,0.18 -1.28,0.85 -1.28,1.46z"/>
   <path class="fil0 str0" d="M62.56 43.22c0,0.73 -0.04,1.1 0.4,1.64 0.96,1.18 2.88,0.41 5.18,0.07 5.41,-0.8 10.93,-0.99 16.22,-1.26 1.02,-0.05 1.08,-0.23 2.26,-0.23l9.25 -0.74c2.19,-0.28 3.02,-0.21 3.02,-2.43 0,-2.45 -5.05,-1.13 -8.16,-0.89 -1.34,0.1 -3.46,0.32 -4.8,0.43l-15.14 0.98c-2.01,0.25 -8.24,0.48 -8.24,2.43z"/>
   <path class="fil0 str0" d="M62.56 25.05c0,3.67 2.92,1.91 10.03,1.17l23.29 -1.69c2.19,-0.28 3.02,-0.21 3.02,-2.43 0,-0.58 -0.66,-1.2 -1.12,-1.39 -0.64,-0.27 -10.3,0.8 -11.83,0.93l-10.11 0.56c-2.49,0.37 -9.78,0.68 -11.95,1.45 -0.54,0.19 -1.32,0.78 -1.32,1.4z"/>
   <path class="fil0 str0" d="M15.32 69.33c0,2.09 0.59,2.11 2.82,2.4l13.97 1.01c2.93,0.24 6.07,0.52 9.09,0.67 6.81,0.33 10.45,2.89 10.45,-1.14 0,-1.49 -2.68,-1.66 -3.44,-1.79 -9.08,-1.51 -20.44,-1.33 -29.31,-2.49 -0.74,-0.1 -3.59,-0.66 -3.59,1.32z"/>
  </g>
 </g>
</svg>
