<?xml version="1.0" encoding="UTF-8"?>
<!DOCTYPE svg PUBLIC "-//W3C//DTD SVG 1.1//EN" "http://www.w3.org/Graphics/SVG/1.1/DTD/svg11.dtd">
<!-- Creator: CorelDRAW 2020 (64 Bit) -->
<svg xmlns="http://www.w3.org/2000/svg" xml:space="preserve" width="12.1031mm" height="12.7561mm" version="1.1" style="shape-rendering:geometricPrecision; text-rendering:geometricPrecision; image-rendering:optimizeQuality; fill-rule:evenodd; clip-rule:evenodd"
viewBox="0 0 1641.66 1730.23"
 xmlns:xlink="http://www.w3.org/1999/xlink"
 xmlns:xodm="http://www.corel.com/coreldraw/odm/2003">
 <defs>
  <style type="text/css">
   <![CDATA[
    .str0 {stroke:#144170;stroke-width:47.85;stroke-miterlimit:22.9256}
    .fil0 {fill:#296B9F}
   ]]>
  </style>
 </defs>
 <g id="Camada_x0020_1">
  <metadata id="CorelCorpID_0Corel-Layer"/>
  <path class="fil0 str0" d="M588.13 1283.23c-27.32,0 -31.01,-3.7 -31.01,-31.01 0,-23.44 49.86,-26.26 49.86,6.17 0,11.27 -8.46,24.85 -18.85,24.85l0 0 0 -0.01zm270.83 323.69l-12.15 0 0 -99.74c59.21,0 126.51,-17.44 179.21,-35.24 63.97,-21.68 149.07,-74.36 199.47,-120.88 51.27,-47.05 90.74,-100.62 124.23,-162.29 37.71,-68.71 69.6,-173.56 69.6,-254.45l99.74 0c0,74.71 -16.39,151.89 -40.88,217.27 -7.58,20.26 -16.91,39.12 -24.85,59.21 -4.76,11.8 -7.93,14.97 -14.09,26.26 -5.64,10.39 -7.93,16.91 -14.09,26.26 -54.97,90.74 -113.83,153.3 -198.06,215.86 -62.03,45.64 -150.48,87.05 -224.31,105.38 -42.82,10.39 -90.21,21.68 -142.91,21.68l-0.53 0.53 -0.37 0.16zm-734.61 -659.9l0 -12.15 99.74 0c0,41.94 10.39,90.39 18.85,124.58 12.68,50.39 19.21,61.15 38.06,104.85 16.91,39.47 54.97,98.32 84.23,130.74 36.3,40.88 64.5,71.01 111.89,103.09 92.68,62.56 207.39,109.6 319.82,109.6l0 99.74c-64.85,0 -100.62,-7.93 -155.59,-21.68 -54.09,-13.21 -125.64,-42.82 -173.56,-71.89 -109.6,-66.26 -202.65,-158.94 -262.03,-273.3 -45.64,-87.92 -80.88,-189.95 -80.88,-292.51l-0.53 -0.88 0 -0.19zm946.23 -37.18c0,-35.24 49.86,-29.6 49.86,-6.17 0,14.62 0,31.01 -24.85,31.01 -14.97,0 -24.85,-9.86 -24.85,-24.85l0 0 -0.16 0.01zm-946.23 -43.7c0,-56.91 17.44,-128.8 32.42,-173.04 9.35,-27.67 16.91,-48.46 28.73,-73.83l35.24 -70.48c17.8,4.23 278.94,178.68 323.51,208.45l187.66 123.17c5.64,4.23 2.29,1.94 5.11,4.23l-612.85 0 0 -18.85 0 0.53 0.18 -0.19zm687.56 -56.03l15.5 0c47.93,0 93.56,45.11 93.56,93.56 0,31.54 -5.11,53.56 -28.73,77.18 -63.97,63.97 -162.82,10.74 -167.39,-46.17 16.39,0 94.62,2.82 105.91,-2.82 6.17,-2.82 15.5,-13.21 15.5,-22.03 0,-20.62 -89.86,-70.48 -93.21,-71.54 8.46,-12.68 38.06,-28.2 59.21,-28.2l-0.53 0 0.18 0.01zm-183.43 -59.21c26.26,-39.47 107.66,-90.21 174.45,-90.21 51.27,0 66.79,-0.53 115.24,18.85 65.38,25.91 137.8,103.09 142.91,165.11 -53.56,36.3 -53.56,94.62 0,130.74 -1.94,22.56 -20.26,56.91 -30.65,71.89 -13.21,18.85 -30.13,40.53 -48.46,54.09 -77.18,60.26 -177.27,77.18 -268.54,34.36 -24.5,-11.27 -49.33,-30.13 -67.32,-47.93 -37.71,-37.71 -72.42,-97.8 -73.83,-153.3l102.56 0c1.41,14.97 9.86,37.71 16.91,48.46 83.17,137.8 278.94,71.54 278.94,-73.3 0,-109.07 -124.23,-196.65 -236.12,-120.88 -10.39,7.05 -13.74,12.15 -22.2,18.32 -11.8,-3.35 -77.53,-46.52 -84.23,-56.03l0 0 0.35 -0.18zm-105.91 -339.02c0,-37.18 49.86,-35.24 49.86,3.35 0,23.44 -49.86,33.83 -49.86,-3.35zm323.53 -198.94c80,0 148.19,14.97 217.27,40.88 29.08,10.74 58.85,22.56 85.64,38.59 9.86,5.64 16.91,8.46 26.26,14.09 33.48,20.26 68.19,41.94 96.39,68.71l63.97 60.62c8.46,8.46 10.74,13.21 18.85,21.68 14.09,14.97 24.85,30.65 37.18,47.05 20.26,27.32 48.46,71.54 61.15,103.44 15.5,39.12 33.48,78.94 44.23,120.88 11.27,45.64 21.68,100.26 21.68,155.77l-99.74 0c0,-103.44 -39.12,-205.98 -89.33,-290.74 -9.35,-16.03 -39.12,-67.32 -60.26,-67.32 -34.36,0 -25.91,30.13 -11.8,48.98 6.52,8.46 10.39,14.97 16.91,23.44 7.05,8.99 9.86,14.97 16.03,24.5 102.03,169.86 105.38,382.9 8.99,555.4 -17.44,31.54 -37.71,58.85 -60.26,86 -4.76,5.64 -4.76,6.52 -9.35,12.15l-62.56 58.85c-114.71,93.56 -265.72,135.5 -414.8,118.06 -91.27,-10.39 -168.8,-43.7 -241.23,-91.62 -132.68,-87.92 -237.53,-254.97 -237.53,-428.54l99.74 0c0,45.64 14.97,99.74 31.01,140.09 56.03,141.15 93.56,102.56 93.56,77.53l-48.98 -97.44c-12.15,-30.65 -25.91,-79.47 -25.91,-120.35 158.94,0 69.07,-16.91 130.74,105.91 104.85,208.8 385.19,226.25 517.87,32.42 11.27,-16.39 37.18,-69.07 39.12,-91.8 33.83,-2.82 59.21,-40.53 59.21,-74.71 0,-32.42 -29.6,-65.91 -59.21,-68.71 -4.23,-52.68 -60.26,-128.8 -99.74,-158.94 -12.68,-9.35 -22.03,-16.91 -36.65,-25.38 -14.62,-8.46 -27.67,-14.97 -43.7,-21.68 -114.36,-46.17 -240.35,-12.68 -323.51,69.6 -6.52,6.52 -17.44,20.26 -22.56,23.97 -13.56,-9.35 -26.79,-17.8 -40.88,-27.32 -8.46,-5.64 -34.36,-23.09 -42.82,-25.38 44.23,-83.17 192.77,-161.76 292.51,-161.76 80,0 132.15,3.7 203.17,39.47 122.29,61.15 222.91,192.42 222.91,337.27 0,72.95 -6.52,132.15 -37.18,192.77 -62.56,123.7 -191.36,227.13 -339.21,227.13 -55.5,0 -107.3,-3.35 -158.59,-22.03 -8.99,-3.35 -21.15,-9.35 -31.54,-12.15 0.53,-21.68 -0.53,-39.47 -12.68,-58.85 -37.18,-57.44 -133.56,-31.01 -133.56,49.33 0,52.15 60.62,83.17 104.85,61.15 5.64,-2.82 7.05,-4.23 12.15,-7.05 12.15,-6.52 19.74,2.29 37.18,9.35 286.51,115.77 608.1,-103.09 608.1,-424.66 0,-132.15 -63.09,-242.29 -129.86,-309.07 -37.71,-37.71 -76.12,-65.91 -127.39,-90.74 -125.64,-60.26 -289.68,-54.97 -408.8,13.56 -13.56,7.93 -26.26,16.03 -40,25.38l-103.44 99.21c-21.68,-5.64 -63.97,-39.47 -84.23,-52.68 17.8,-33.83 86.52,-100.09 118.06,-121.41 7.93,1.94 82.82,49.33 119.47,-26.79 9.35,-19.21 2.82,-39.47 11.27,-45.11 30.65,-21.15 168.8,-39.47 206.51,-35.24 18.85,2.29 39.47,1.41 56.03,3.35 50.74,6.52 103.09,18.85 147.66,39.12 44.76,20.26 80,40 118.59,68.19 12.15,8.99 21.15,23.97 38.06,23.97 13.21,0 24.85,-9.35 24.85,-21.68 0,-21.68 -47.58,-52.68 -66.79,-63.97 -31.01,-18.85 -52.15,-31.54 -87.05,-47.05 -64.85,-29.24 -141.15,-50.74 -216.74,-50.74l0 -99.74 0.53 2.29 0.19 0.54zm-248.8 142.9c-36.3,-23.97 -79.12,-29.08 -107.3,7.93 -14.97,19.74 -17.44,27.67 -17.44,60.62 -46.52,31.01 -105.91,90.39 -136.91,136.91 -13.21,-3.7 -61.68,-40.88 -84.23,-52.68 4.76,-18.32 32.42,-44.76 43.7,-59.21 37.18,-48.46 117.18,-109.6 169.86,-141.5 82.29,-49.86 205.98,-94.97 331.1,-94.97l0 99.74c-57.8,0 -162.29,23.97 -198.94,43.7l0 -0.53 0.18 -0.01zm198.93 -217.78l0 24.85c-102.03,0 -222.56,34.89 -291.62,69.6 -120,60.62 -217.27,134.09 -294.97,246.51 -13.21,19.21 -23.44,34.36 -35.24,54.97 -11.8,20.62 -20.26,37.71 -31.01,59.21 -34.89,69.07 -69.6,189.07 -69.6,291.62 -20.62,0 -49.86,-4.76 -49.86,24.85 0,29.6 29.08,24.85 49.86,24.85 0,187.13 89.86,374.8 218.68,503.25 45.11,45.11 96.39,86.52 152.95,118.06 98.32,54.97 217.8,100.62 350.83,100.62 0,20.62 -4.76,49.86 24.85,49.86 28.2,0 24.85,-28.2 24.85,-49.86 133.04,0 252.15,-45.64 350.83,-100.62 20.62,-11.27 36.12,-22.2 54.97,-35.24 81.41,-56.39 167.04,-148.19 215.5,-235.59 54.97,-98.32 100.62,-217.8 100.62,-350.83 21.68,0 49.86,3.35 49.86,-24.85 0,-29.6 -29.08,-24.85 -49.86,-24.85 0,-226.78 -133.04,-459.55 -316.12,-586.6 -111.89,-77.53 -258.68,-135.5 -405.98,-135.5 0,-21.68 3.35,-49.86 -24.85,-49.86 -14.97,0 -24.85,9.86 -24.85,24.85l0 0.53 0.16 0.18z"/>
 </g>
</svg>
