<?xml version="1.0" encoding="UTF-8"?>
<!DOCTYPE svg PUBLIC "-//W3C//DTD SVG 1.1//EN" "http://www.w3.org/Graphics/SVG/1.1/DTD/svg11.dtd">
<!-- Creator: CorelDRAW 2020 (64 Bit) -->
<svg xmlns="http://www.w3.org/2000/svg" xml:space="preserve" width="13.3528mm" height="13.3528mm" version="1.1" style="shape-rendering:geometricPrecision; text-rendering:geometricPrecision; image-rendering:optimizeQuality; fill-rule:evenodd; clip-rule:evenodd"
viewBox="0 0 4278.18 4278.18"
 xmlns:xlink="http://www.w3.org/1999/xlink"
 xmlns:xodm="http://www.corel.com/coreldraw/odm/2003">
 <defs>
  <style type="text/css">
   <![CDATA[
    .str0 {stroke:#144170;stroke-width:113.04;stroke-miterlimit:22.9256}
    .fil0 {fill:#144170}
   ]]>
  </style>
   <clipPath id="id0">
    <rect x="56.52" y="56.52" width="4165.14" height="4165.14"/>
   </clipPath>
 </defs>
 <g id="Camada_x0020_1">
  <metadata id="CorelCorpID_0Corel-Layer"/>
  <g style="clip-path:url(#id0)">
   <image id="writing.png" x="56.52" y="56.55" width="4165.11" height="4165.11" xlink:href="recomendacoes-icon_Images\recomendacoes-icon_ImgID1.png"/>
  </g>
  <g id="_1376576948176">
   <path class="fil0 str0" d="M3782.36 3814.92l-1700.21 0c0,-107.2 -11.6,-214.06 25.22,-300.18 41.36,-96.76 149.72,-179.81 259.49,-179.81l1488.72 0 0 382.36c0,51.1 -21.63,97.62 -73.21,97.62zm439.29 -1935.16l0 26.43c-6.38,28.42 -34.09,53.92 -89.49,53.92 -210.88,0 -409.27,24.32 -563.13,-71.38 -24.7,-15.38 -177.15,-155.07 -177.15,-180.8 0,-31.53 10.73,-73.21 48.8,-73.21 68.44,0 98.36,55.84 168.62,124.25 71.7,69.81 147.67,71 246.26,71l0 -846.07c0,-41.11 -29.35,-81.35 -73.21,-81.35l-748.41 0c-24.16,0 -40.18,41.11 -52.38,61.52 -15.86,26.53 -26.08,45.56 -41.78,72.12 -15.73,26.56 -26.82,46.07 -41.36,72.54 -14.83,27.04 -28.8,42.42 -35.31,70.42 180.41,0 228.22,72.79 314.98,156.83 19.9,19.29 132.42,103.23 132.42,144.18 0,38.64 -2.6,73.21 -56.93,73.21 -84.49,0 -200.22,-244.05 -349.81,-244.05 -136.26,0 -114.93,-9.74 -139.21,31.59 -30.25,51.42 -141.87,225.62 -145.49,269.39 193.52,45.08 303.51,348.21 169.46,551.85 -32.42,49.24 -68.37,85.16 -118.9,117.01 -153.92,97.02 -519.49,74.4 -589.05,118.71 -50.78,32.33 -56.13,112.55 -12.56,153.95 29.96,28.48 138.38,35.82 192.65,43.25l618.43 89.33c154.37,4.42 316.81,-0.26 472.1,-0.26l707.75 0c77.86,-0.06 162.7,-14.16 162.7,65.07 0,89.68 -115.21,65.07 -244.05,65.07l0 943.66c0,52.1 -37.74,110.98 -67.19,136.23 -33.42,28.64 -84.94,50.88 -144.34,50.88l-3498.05 0c-118.55,0 -211.53,-90.38 -211.53,-187.11l0 -2798.43c0,-97.18 93.52,-187.11 211.53,-187.11l1342.26 0c98.01,0 185.86,29.38 247.47,69.81 50.4,33.06 135.43,99.1 151.16,157.95l16.24 0c16.76,-62.73 125.37,-146.32 181.5,-176.44 86.6,-46.43 169.17,-51.33 298.48,-51.33 7.27,-31.21 20.25,-44.41 35.05,-70.71 46.39,-82.6 140.94,-273.49 210.31,-318.44 103.94,-67.38 244.21,-69.24 334.46,28.96 146.23,159.14 24.8,314.02 14.03,360.19 178.97,0 357.95,0 536.92,0 94.36,0 177.37,-8.39 240.94,27.49 46.94,26.53 100.73,91.12 100.73,159.62l0 870.45 178.97 0c35.69,0 59.18,23.07 65.07,49.79zm-2139.5 1447.03l0 -382.33c48.7,-1.09 76.06,-20.79 105.73,-40.69 52.22,34.96 67.92,81.35 187.11,81.35 49.15,0 100.35,-28.84 130.18,-48.8 98.2,146.64 372.68,91.86 390.47,-122.04l959.94 0 0 390.5 -1456.17 0c-186.73,0 -245.97,84.3 -317.26,122.01zm504.37 -553.16c56.81,0 124.12,19.83 178.97,24.38 -2.69,120.76 -162.44,128.09 -180.45,17.46 -6.54,-40.18 2.27,-13.04 1.47,-41.84zm-317.29 -24.41c0,-47.42 88.49,0 187.11,0 0,144.98 -187.11,141.61 -187.11,0zm-699.58 138.28c5.54,-66.96 16.24,-136.87 16.24,-211.49l162.73 89.49 -178.97 122.01zm488.09 -65.07c-57.9,0 -97.62,-34.38 -97.62,-81.35 0,-9.96 33.93,-68.56 40.69,-81.35 37.61,25.18 88.78,44.02 146.42,48.8 0,62.22 -30.09,113.9 -89.49,113.9zm195.25 -585.71c8.3,-35.72 264.71,-467.46 292.84,-520.64 48.16,4 98.91,49.18 123.45,79.94 107.91,135.24 43.86,322.73 -85.16,389.5 -43.22,22.36 -262.47,51.2 -331.13,51.2zm-203.39 -691.48l-268.46 455.57c-49.85,-13.33 -79.39,-78.5 -51.74,-132.9 15.19,-29.83 295.34,-306.04 320.2,-322.67zm0 0l0 0zm-455.57 341.67c0,118.32 27.68,173.56 130.18,227.77 -15.03,28.39 -33.03,54.88 -48.41,81.76 -17.33,30.31 -32.2,58.41 -49.63,88.65 -86.96,151 -155.07,223.54 -162.44,374.48 -4.07,83.69 -16.12,156.9 -16.12,252.34 0,70.65 101.53,156.06 217.48,71.06 24.19,-17.75 43.67,-31.01 67.28,-46.62 32.39,-21.47 103.52,-80.26 138.25,-89.52 10.61,39.66 50.94,60.97 81.35,81.35l0 398.6c-70.42,-37.26 -130.3,-122.01 -317.26,-122.01l-821.65 0c-39.34,0 -65.07,25.73 -65.07,65.07 0,68.4 61.04,65.55 130.11,65.14l585.78 -0.06c142.48,0 255.84,-15.99 345.23,45.27 167.95,115.12 142.86,240.36 142.86,434.71l-1700.21 0c-43.86,0 -73.21,-40.24 -73.21,-81.35l0 -398.64 325.39 0c118.23,0 97.37,-130.14 16.28,-130.14l-341.67 0 0 -2220.89c0,-41.11 29.35,-81.35 73.21,-81.35l1391.09 0c157.57,0 309.12,158.66 309.12,317.29 0,305.18 41.62,198.36 -193.2,433.17 -53.38,53.38 -164.75,138.92 -164.75,233.89zm317.29 585.71c0,85.74 33.32,56.42 -65.1,203.39l-110.41 -60.43c-29.12,-17.21 -88.08,-54.79 -117.36,-61.61l248.63 -434.71c230.65,-380.85 463.68,-818.9 693.43,-1202.03 22.62,-37.74 43.57,-77.79 66.67,-112.3 29.6,19.83 192.62,115.73 219.66,122.04 -2.92,35.12 -83.98,164.39 -106.18,202.94 -37.1,64.46 -77.76,129.73 -113.48,195.67 -99.45,183.68 -232.9,398.16 -339.14,588.25l-169.78 293.93c-37.74,63.85 -17.85,41.01 -83.62,70.97 -60.3,27.46 -123.32,102.43 -123.32,193.9zm170.83 -1147.05c0,-166.19 3.27,-204.41 77.66,-304.66 24.29,-32.78 66.77,-63.44 103.81,-83.27 50.4,-27.01 85.64,-35.08 160.2,-35.08l-139.79 242.57c-47.35,78.72 -22.88,46.94 -95.83,91.28 -44.31,26.91 -69.14,64.46 -106.05,89.17zm837.9 -504.37c-40.27,-9.39 -178.81,-96.12 -227.77,-122.01 6.82,-29.32 97.21,-185.99 120.24,-205.15 83.3,-69.21 213.29,-13.78 213.29,74.97 0,107.04 -36.17,120.66 -105.76,252.18z"/>
   <path class="fil0 str0" d="M390.05 1203.57c0,41.97 33.87,65.07 73.21,65.07l1155.19 0c91.6,0 110.12,-130.14 -8.14,-130.14l-1138.91 0c-48.51,0 -81.35,16.56 -81.35,65.07z"/>
   <path class="fil0 str0" d="M390.05 1626.58c0,39.34 25.73,65.07 65.07,65.07l1049.42 0c93.56,0 71.45,-122.01 16.28,-122.01l-1081.94 0c-23,0 -48.83,33.9 -48.83,56.93z"/>
   <path class="fil0 str0" d="M390.05 2057.74c0,41.97 33.87,65.07 73.21,65.07l911.14 0c91.6,0 110.12,-130.14 -8.14,-130.14l-894.86 0c-48.51,0 -81.35,16.6 -81.35,65.07z"/>
   <path class="fil0 str0" d="M390.05 2480.76c0,39.34 25.73,65.07 65.07,65.07l805.38 0c93.56,0 71.42,-122.01 16.28,-122.01l-837.9 0c-23,0 -48.83,33.93 -48.83,56.93z"/>
   <path class="fil0 str0" d="M390.05 2911.91c0,41.97 33.87,65.07 73.21,65.07l667.1 0c91.6,0 110.09,-130.14 -8.14,-130.14l-650.82 0c-48.51,0 -81.35,16.6 -81.35,65.07z"/>
  </g>
 </g>
</svg>
