<?xml version="1.0" encoding="UTF-8"?>
<!DOCTYPE svg PUBLIC "-//W3C//DTD SVG 1.1//EN" "http://www.w3.org/Graphics/SVG/1.1/DTD/svg11.dtd">
<!-- Creator: CorelDRAW 2020 (64 Bit) -->
<svg xmlns="http://www.w3.org/2000/svg" xml:space="preserve" width="13mm" height="13mm" version="1.1" style="shape-rendering:geometricPrecision; text-rendering:geometricPrecision; image-rendering:optimizeQuality; fill-rule:evenodd; clip-rule:evenodd"
viewBox="0 0 97.31 97.31"
 xmlns:xlink="http://www.w3.org/1999/xlink"
 xmlns:xodm="http://www.corel.com/coreldraw/odm/2003">
 <defs>
  <style type="text/css">
   <![CDATA[
    .fil0 {fill:#144170}
   ]]>
  </style>
 </defs>
 <g id="Camada_x0020_1">
  <metadata id="CorelCorpID_0Corel-Layer"/>
  <g id="_1376575276128">
   <path class="fil0" d="M77.72 30.74l0 63.57c0,1.42 1.48,3.01 2.8,3.01l13.99 0c1.32,0 2.8,-1.59 2.8,-3.01l0 -63.57c0,-1.42 -1.48,-3.01 -2.8,-3.01l-13.99 0c-1.32,0 -2.8,1.59 -2.8,3.01z"/>
   <path class="fil0" d="M51.89 44.61l0 49.7c0,1.42 1.48,3.01 2.8,3.01l13.78 0c1.32,0 2.8,-1.59 2.8,-3.01l0 -49.7c0,-1.42 -1.48,-3.01 -2.8,-3.01l-13.78 0c-1.32,0 -2.8,1.59 -2.8,3.01z"/>
   <path class="fil0" d="M68.04 3c0,4.54 2.96,3.93 6.24,3.93l-13.92 8.17c-0.91,0.5 -1.57,0.81 -2.4,1.35 -0.81,0.53 -1.61,0.86 -2.4,1.35l-14.15 8.16c-0.89,0.51 -1.41,0.87 -2.37,1.39 -3.65,1.95 -8.04,4.8 -11.77,6.78l-23.54 13.56c-0.49,0.26 -0.68,0.39 -1.1,0.66 -0.44,0.29 -0.82,0.44 -1.25,0.74 -2.81,2 -1.41,8.99 4.72,5.3l40.19 -23.19c4.09,-2.17 10.17,-6.06 14.28,-8.25 0.96,-0.51 1.48,-0.88 2.37,-1.39l16.72 -9.55c-0.5,2.31 -1.94,2.72 -1.94,5.78 0,1.88 1.57,3.01 3.66,3.01 2.3,0 3.84,-4.77 5.24,-7.78 1.46,-3.14 4.02,-7.44 4.02,-10.02 0,-1.42 -1.48,-3 -2.8,-3l-17.01 0c-1.32,0 -2.8,1.59 -2.8,3z"/>
   <path class="fil0" d="M26.06 58.48l0 35.83c0,1.42 1.48,3.01 2.8,3.01l13.78 0c1.32,0 2.8,-1.59 2.8,-3.01l0 -28.09 0 -7.74c0,-1.42 -1.48,-3 -2.8,-3l-13.78 0c-1.32,0 -2.8,1.59 -2.8,3z"/>
   <path class="fil0" d="M0.01 72.35l0 21.96c0,1.42 1.48,3.01 2.8,3.01l13.99 0c1.32,0 2.8,-1.59 2.8,-3.01l0 -21.96c0,-1.42 -1.48,-3 -2.8,-3l-13.99 0c-1.32,0 -2.8,1.59 -2.8,3z"/>
  </g>
 </g>
</svg>
