<?xml version="1.0" encoding="UTF-8"?>
<!DOCTYPE svg PUBLIC "-//W3C//DTD SVG 1.1//EN" "http://www.w3.org/Graphics/SVG/1.1/DTD/svg11.dtd">
<!-- Creator: CorelDRAW 2020 (64 Bit) -->
<svg xmlns="http://www.w3.org/2000/svg" xml:space="preserve" width="13mm" height="9.1406mm" version="1.1" style="shape-rendering:geometricPrecision; text-rendering:geometricPrecision; image-rendering:optimizeQuality; fill-rule:evenodd; clip-rule:evenodd"
viewBox="0 0 158.37 111.35"
 xmlns:xlink="http://www.w3.org/1999/xlink"
 xmlns:xodm="http://www.corel.com/coreldraw/odm/2003">
 <defs>
  <style type="text/css">
   <![CDATA[
    .fil0 {fill:#144170}
   ]]>
  </style>
 </defs>
 <g id="Camada_x0020_1">
  <metadata id="CorelCorpID_0Corel-Layer"/>
  <path class="fil0" d="M55.68 62.48c2.27,1.52 12.36,12.9 15.6,15.02 4.66,3.06 11.17,2.97 15.77,-0.05 3.82,-2.51 13.16,-13.31 15.65,-14.98l12.88 12.79c0.04,0.05 0.1,0.11 0.15,0.16l0.46 0.47c0.38,0.39 0.19,0.17 0.61,0.63 3.69,4.12 24.29,24.18 25.2,25.53l-125.58 0c0.91,-1.35 3.4,-3.56 4.72,-4.87l22.27 -22.27c0.47,-0.46 0.81,-0.76 1.23,-1.24 2.13,-2.42 8.89,-9.76 11.06,-11.21zm53.82 -6.8c1.33,-1.98 27.47,-27.03 31.95,-32.39l7.64 -7.52 0 79.8 -39.59 -39.9zm-100.22 39.9l0 -79.8 39.59 39.9c-1.39,2.08 -23.9,23.45 -27.13,27.31 -1.69,2.02 -11.1,11.68 -12.46,12.59zm7.11 -86.3l125.58 0c-0.99,1.48 -20.02,20.18 -22.97,23.12 -1.42,1.42 -2.31,2.64 -3.71,4.02l-30.93 30.93c-3.71,3.72 -6.35,4.03 -10.21,0.15 -6.87,-6.91 -24.65,-24.12 -28.78,-29.06 -3.83,-4.58 -27.23,-26.55 -28.98,-29.17zm-16.39 4.02l0 84.75c0,7 6.65,13.3 12.99,13.3l132.08 0c5.31,0 9.98,-3.76 11.87,-7.62 0.65,-1.32 1.43,-3.57 1.43,-5.37l0 -85.37c0,-6.21 -6.12,-12.99 -13.3,-12.99l-132.08 0c-6.21,0 -12.99,6.12 -12.99,13.3z"/>
 </g>
</svg>
