<?xml version="1.0" encoding="UTF-8"?>
<!DOCTYPE svg PUBLIC "-//W3C//DTD SVG 1.1//EN" "http://www.w3.org/Graphics/SVG/1.1/DTD/svg11.dtd">
<!-- Creator: CorelDRAW 2020 (64 Bit) -->
<svg xmlns="http://www.w3.org/2000/svg" xml:space="preserve" width="12.737mm" height="12.737mm" version="1.1" style="shape-rendering:geometricPrecision; text-rendering:geometricPrecision; image-rendering:optimizeQuality; fill-rule:evenodd; clip-rule:evenodd"
viewBox="0 0 201.4 201.4"
 xmlns:xlink="http://www.w3.org/1999/xlink"
 xmlns:xodm="http://www.corel.com/coreldraw/odm/2003">
 <defs>
  <style type="text/css">
   <![CDATA[
    .fil0 {fill:#144170}
   ]]>
  </style>
 </defs>
 <g id="Camada_x0020_1">
  <metadata id="CorelCorpID_0Corel-Layer"/>
  <g id="_2213641321664">
   <path class="fil0" d="M9.44 104.64c0,-18.24 1.41,-26.3 8.54,-42.99 7.31,-17.12 26.51,-36.34 43.66,-43.66 27.21,-11.62 50.93,-11.6 78.11,0 13.29,5.67 27.11,18.16 35.52,29.78 1.6,2.21 2.93,4.3 4.33,6.69 6.88,11.72 12.36,28.35 12.36,42.32 0,18.24 -1.41,26.3 -8.54,42.99 -1.07,2.5 -2.4,4.72 -3.67,6.95 -6.33,11.07 -15.8,21.11 -26.11,28.57 -2.21,1.6 -4.3,2.93 -6.69,4.33 -11.72,6.88 -28.35,12.36 -42.32,12.36 -18.24,0 -26.3,-1.41 -42.99,-8.54 -2.5,-1.07 -4.72,-2.4 -6.95,-3.67 -20.52,-11.74 -36.71,-32.83 -42.42,-55.92 -1.39,-5.6 -2.83,-12.4 -2.83,-19.2zm86.95 -104.64l9.88 0c12.7,0.62 25.32,3.67 37.05,9.3 21.69,10.42 38.74,27.13 48.91,49.04 6.7,14.45 9.18,26.91 9.18,45.11 0,26.03 -12.46,51.6 -29.4,68.55 -7.98,7.98 -18.02,15.16 -28.94,20.23 -14.45,6.7 -26.91,9.18 -45.11,9.18 -37.84,0 -73.17,-24.7 -88.77,-58.35 -6.7,-14.45 -9.18,-26.91 -9.18,-45.11 0,-26.03 12.46,-51.6 29.4,-68.55 17.99,-17.99 42.27,-28.2 66.99,-29.4z"/>
   <path class="fil0" d="M77.89 95.19c1.17,-0.1 10.45,-3.56 13.89,-0.12 3.9,3.89 -1.55,18.2 -2.96,23.25 -3.91,13.96 -10.39,29.96 10.19,32.86 5.65,0.79 11.7,-1.13 16.81,-3.11 1.24,-0.48 4.25,-1.65 5.34,-1.74 0.33,-1.43 1.05,-4.8 1.57,-5.9 -2.98,0.07 -0.99,1.18 -10.62,1.18 -15.81,0 8.34,-35.97 1.85,-49.84 -1.43,-3.06 -4.1,-5.21 -7.29,-6.48 -3.3,-1.32 -7.58,-1.51 -11.82,-1.06 -1.68,0.18 -14.71,4.01 -15.57,5.28 -0.38,0.56 -1.37,4.67 -1.4,5.68z"/>
   <path class="fil0" d="M97.55 62.15c0,2.8 2.06,6.75 3.69,8.11 13.76,11.45 29.9,-6.1 19.04,-16.28 -8.38,-7.85 -22.73,-2.2 -22.73,8.18z"/>
  </g>
 </g>
</svg>
