<?xml version="1.0" encoding="UTF-8"?>
<!DOCTYPE svg PUBLIC "-//W3C//DTD SVG 1.1//EN" "http://www.w3.org/Graphics/SVG/1.1/DTD/svg11.dtd">
<!-- Creator: CorelDRAW 2020 (64 Bit) -->
<svg xmlns="http://www.w3.org/2000/svg" xml:space="preserve" width="13mm" height="13mm" version="1.1" style="shape-rendering:geometricPrecision; text-rendering:geometricPrecision; image-rendering:optimizeQuality; fill-rule:evenodd; clip-rule:evenodd"
viewBox="0 0 121.22 121.22"
 xmlns:xlink="http://www.w3.org/1999/xlink"
 xmlns:xodm="http://www.corel.com/coreldraw/odm/2003">
 <defs>
  <style type="text/css">
   <![CDATA[
    .str0 {stroke:#144170;stroke-width:0.71;stroke-miterlimit:22.9256}
    .fil0 {fill:#144170}
   ]]>
  </style>
   <clipPath id="id0">
    <rect width="121.22" height="121.22"/>
   </clipPath>
 </defs>
 <g id="Camada_x0020_1">
  <metadata id="CorelCorpID_0Corel-Layer"/>
  <g style="clip-path:url(#id0)">
   <image id="file.png" x="-0" y="0" width="121.22" height="121.22" xlink:href="informativos-icon_Images\informativos-icon_ImgID1.png"/>
  </g>
  <g id="_2213861645296">
   <path class="fil0" d="M27.23 28.65l37.65 0 0 5.21 -37.65 0 0 -5.21zm42.62 -3.31c0,-5.31 1.52,-9.69 4.79,-13.44 0.45,-0.52 0.68,-0.95 1.18,-1.42 7.93,-7.42 19.81,-7.64 27.83,-0.23 2.85,2.63 6.21,8.05 6.21,13.44 0,6.53 -1.33,10.88 -5.98,15.57 -6.95,7 -18.79,7.65 -26.52,1.3 -2.04,-1.68 -1.93,-1.52 -3.7,-3.87 -2.19,-2.9 -3.82,-7.2 -3.82,-11.33zm-4.97 -1.66c-11.29,0 -22.57,0 -33.86,0 -10.22,0 -8.76,-1.36 -8.76,12.55 0,1.19 1.18,2.37 2.37,2.37l42.85 0c0.72,0 0.96,-0.23 1.42,-0.47 0.63,2.36 5.81,6.73 8.33,8.25 2.2,1.33 3.51,1.31 3.51,2.17l0 51.85c0,1.74 -1.94,3.31 -3.79,3.31l-61.8 0c-1.85,0 -3.79,-1.57 -3.79,-3.31l0 -87.13c0,-1.68 1.67,-3.31 4.25,-3.33l54.23 0.01c-0.37,0.69 -0.42,0.66 -0.84,1.29 -0.33,0.5 -0.61,0.96 -0.89,1.47 -2.94,5.29 -2.24,6.66 -3.24,10.97zm-58.48 -9.71l0 85.71c0,6.24 4.81,9 10.65,9l5.45 0c0,3.89 -0.35,6.59 2.2,9.64 1,1.2 3.55,2.91 5.62,2.91l63.45 0c4,0 8.05,-3.87 8.05,-8.76l0 -32.67c0,-2.87 -4.88,-3.89 -4.98,0.94 -0.18,8.67 0.01,19.52 0.01,28.42 0,2.19 0.92,7.34 -4.03,7.34l-60.85 0c-5.3,0 -4.5,-4.14 -4.5,-7.81l47.59 0c5.85,0 10.65,-2.69 10.65,-9l0 -50.19c1.07,0.02 0.94,0.24 2.13,0.24 2.5,0 6.85,0.08 9,-0.95 0,1.81 -0.19,8.97 0.27,10.39 0.75,2.32 3.78,2.1 4.55,0.12 0.38,-0.99 0.15,-11.09 0.15,-12.63 2.89,-0.77 7.21,-5.59 9,-8.29 10.98,-16.55 -1.87,-38.36 -19.89,-38.36 -6.86,0 -10.08,1.02 -15.37,4.51 -0.97,0.64 -1.06,0.48 -2.62,0.46l-51.38 -0c-5.19,0 -10.97,-0.73 -13.81,4.18 -0.77,1.33 -1.34,2.82 -1.34,4.82z"/>
   <path class="fil0" d="M22.26 71.5c0,1.47 1.21,2.6 2.6,2.6l42.38 0c3.35,0 3.44,-4.97 0,-4.97l-42.14 0c-0.89,0 -1.45,0.18 -1.97,0.63 -0.41,0.36 -0.87,1.11 -0.87,1.74z"/>
   <path class="fil0" d="M22.26 49.01c0,1.63 1.17,2.6 2.84,2.6l41.91 0c3.81,0 3.81,-4.97 -0.24,-4.97l-41.43 0c-1.72,0 -3.08,1.08 -3.08,2.37z"/>
   <path class="fil0" d="M22.26 60.37c0,1.28 1.17,2.37 1.89,2.37l43.8 0c2.15,0 2.91,-4.74 -0.47,-4.74l-42.85 0c-1.19,0 -2.37,1.18 -2.37,2.37z"/>
   <path class="fil0" d="M22.26 82.87c0,1.19 1.18,2.37 2.37,2.37l42.85 0c3.15,0 2.8,-4.74 0.47,-4.74l-43.8 0c-0.39,0 -1.1,0.52 -1.33,0.8 -0.29,0.36 -0.57,1 -0.57,1.56z"/>
   <path class="fil0 str0" d="M87.37 22.26l0 15.15c0,4.17 4.97,3.64 4.97,0.47l0 -16.1c0,-3.19 -4.97,-3.34 -4.97,0.47z"/>
   <path class="fil0" d="M87.37 14.21c0,2.89 4.97,3.44 4.97,-0.24 0,-2.86 -4.97,-3.05 -4.97,0.24z"/>
   <path class="fil0" d="M99.2 71.5c3.46,0 3.46,-4.97 0,-4.97 -0.41,0 -1.35,0.51 -1.6,0.77 -1.44,1.46 -0.27,4.2 1.6,4.2z"/>
  </g>
 </g>
</svg>
