<?xml version="1.0" encoding="UTF-8"?>
<!DOCTYPE svg PUBLIC "-//W3C//DTD SVG 1.1//EN" "http://www.w3.org/Graphics/SVG/1.1/DTD/svg11.dtd">
<!-- Creator: CorelDRAW 2020 (64 Bit) -->
<svg xmlns="http://www.w3.org/2000/svg" xml:space="preserve" width="13mm" height="13mm" version="1.1" style="shape-rendering:geometricPrecision; text-rendering:geometricPrecision; image-rendering:optimizeQuality; fill-rule:evenodd; clip-rule:evenodd"
viewBox="0 0 145.73 145.73"
 xmlns:xlink="http://www.w3.org/1999/xlink"
 xmlns:xodm="http://www.corel.com/coreldraw/odm/2003">
 <defs>
  <style type="text/css">
   <![CDATA[
    .fil0 {fill:#144170}
   ]]>
  </style>
 </defs>
 <g id="Camada_x0020_1">
  <metadata id="CorelCorpID_0Corel-Layer"/>
  <g id="_2213861664256">
   <path class="fil0" d="M85.39 136.05l40.99 0c0.04,1.75 0.73,3.32 0.85,4.84l-40.7 0c-0.33,-1.41 -1.14,-2.72 -1.14,-4.84zm40.99 -5.12l-40.99 0c0.03,-1.18 0.74,-3.73 1.14,-4.55l40.7 0c-0.12,1.39 -0.72,2.99 -0.85,4.55zm-45.26 9.96l-4.55 0c-0.09,-1.07 -0.42,-1.59 -0.69,-2.73 -1.42,-6.04 0.52,-9.82 0.69,-11.79l4.55 0c-0.26,3.09 -1.75,4.65 -0.74,10.99 0.21,1.31 0.65,2.34 0.74,3.52zm-10.82 -7.69c0,2.23 0.35,6.04 1.14,7.69l-43.26 0c-0.52,-2.25 -1.34,-4.53 -1.41,-7.13 -0.07,-2.59 0.88,-5.09 1.41,-7.39l43.26 0c-0.64,1.34 -1.14,4.75 -1.14,6.83zm-48.39 -0.57c0,2.64 0.1,6.09 1.14,8.25l-4.55 0c-1.11,-4.75 -2.3,-6.86 -0.57,-12.81 0.25,-0.84 0.38,-0.88 0.57,-1.71l4.55 0c-0.61,1.26 -1.14,4.33 -1.14,6.26zm63.47 -15.94l40.99 0c0.03,1.26 0.58,3.39 0.85,4.55l-40.7 0c-0.49,-1.02 -1.14,-3.05 -1.14,-4.55zm-63.47 -3.7c0,2.32 -0.1,3.09 0.32,5.37 0.18,1.01 0.51,1.72 0.54,2.88 -4.62,0 -4.51,0.63 -5.21,-3.05 -0.58,-3.07 -0.68,-5.02 0.02,-8.12 0.82,-3.63 0.22,-3.06 5.19,-3.06 -0.03,1.16 -0.35,1.87 -0.54,2.88 -0.21,1.14 -0.32,1.77 -0.32,3.1zm104.46 -1.42l-40.99 0c0.03,-1.41 0.67,-3.57 1.14,-4.55l40.7 0c-0.13,1.53 -0.82,2.86 -0.85,4.55zm-45.26 9.68l-4.55 0c-1.62,-6.94 -1.62,-7.29 0,-14.23l4.55 0c-1.32,5.69 -1.32,8.54 0,14.23zm-10.82 -7.4c0,2.4 0.33,5.72 1.14,7.4l-43.26 0c-1.03,-4.44 -2,-5.32 -0.94,-10.9 0.28,-1.46 0.64,-2.07 0.94,-3.33l43.26 0c-0.68,1.42 -1.14,4.66 -1.14,6.83zm-13.09 -21.35l31.31 0c3.62,0 7.65,2.76 9.3,5.78 0.72,1.32 0.93,2.39 1.51,3.61l-52.65 0c0.05,-2.38 2.15,-5.2 3.57,-6.39 1.64,-1.38 4.1,-3 6.96,-3zm-51.8 -31.59l42.69 0c-0.09,4.25 -5.85,9.39 -10.82,9.39l-21.06 0c-5.16,0 -10.7,-5.2 -10.82,-9.39zm92.22 0l42.69 0c-0.05,2.38 -2.15,5.2 -3.57,6.39 -1.75,1.47 -4.19,3 -7.24,3l-21.06 0c-5.12,0 -10.23,-4.85 -10.82,-9.39zm21.63 -32.16c0.67,1.26 1.48,2.28 2.28,3.41l16.79 23.63 -38.71 0 14.6 -20.41c0.96,-1.29 3.83,-5.81 5.04,-6.63zm-92.79 0l0.57 0c0.22,0.83 0.56,1.15 1.06,1.79l3.55 4.98c4.46,6.54 10.04,13.66 14.46,20.27l-38.71 0 11.95 -16.8c0.81,-1.14 6.88,-9.34 7.12,-10.24zm41.56 -18.79c0,-2.25 1.78,-4.84 3.98,-4.84 1.77,0 2.97,-0.19 4.36,1.34 3.69,4.07 -1.22,6.75 -1.22,8.91l0 72.01 -4.55 0 0 -72.01c0,-1.31 -0.7,-1.86 -1.34,-2.64 -0.42,-0.52 -1.22,-2.01 -1.22,-2.76zm-4.84 -0.85c0,2.53 -0,3.74 1.6,6.08 0.56,0.82 0.66,0.85 0.7,2.15 0.02,1.02 -0.02,2.12 -0.02,3.15l-6.94 -2.16c-6.97,-1.73 -14.75,-1.86 -21.56,0.42 -2.63,0.88 -6.68,2.88 -8.22,2.88 -2.93,0 -3.32,-1.04 -5.12,-1.99 -0.71,0.48 -1.13,0.99 -1.78,1.64 -0.69,0.68 -1.37,1.05 -1.64,2.06 1.24,0.33 1.5,1.35 2.85,1.71l-8.71 12.35c-1.02,1.48 -1.97,2.75 -2.96,4.15l-10.2 14.27c-1.12,1.5 -1.18,1.47 -1.18,3.38 0,2.55 0.86,4.84 1.7,6.55 2.66,5.44 8.43,9.67 15.38,9.67l19.35 0c12.74,0 19.87,-14.29 16.15,-19.28l-21.27 -29.96c1.53,-0.13 2.56,-0.9 3.74,-1.39 5.85,-2.4 11.62,-3.42 18.07,-2.49 4.57,0.66 6.68,1.9 10.6,2.78 0.87,0.19 1.75,0.09 1.75,1.09l0 61.19c-6.76,0 -13.39,-0.75 -18.58,4.48 -2.39,2.41 -5.33,6.2 -5.33,10.04l-24.48 0c-3.51,0 -4.84,8.2 -4.84,10.82 0,9.14 1.6,8.94 1.84,10.91 0.1,0.83 -1.84,4.64 -1.84,8.16 0,4.22 -0.18,5.58 1.24,9.86 0.55,1.66 1.35,4.08 3.32,4.08l114.42 0c1.5,0 2.28,-1.15 2.28,-2.56 0,-0.7 -0.99,-2.73 -1.46,-4.23 -1.23,-3.94 -0.98,-9.15 0.7,-12.75 1.59,-3.41 0.4,-2.57 -0.77,-6.82 -2.33,-8.45 1.53,-13.16 1.53,-14.9 0,-1.41 -1.15,-2.56 -2.56,-2.56l-26.75 0c0,-6.38 -7.77,-14.52 -16.22,-14.52l-7.68 0 0 -61.19c0,-0.96 0.59,-0.85 1.52,-1.04 6.6,-1.32 10.46,-4.37 20.24,-2.79 6.88,1.11 10.98,3.71 12.39,3.83 -0.31,1.16 -17.66,24.86 -19.7,27.84 -0.68,0.99 -2.5,3.04 -2.5,4.33 0,9.35 7.76,17.08 17.08,17.08l19.35 0c9.67,0 17.08,-7.81 17.08,-17.08 0,-1.82 -9.62,-14.5 -11.34,-16.84l-11.71 -16.46c1.03,-0.24 2.35,-1.25 2.85,-1.99 -0.4,-1.49 -2.3,-2.45 -3.13,-3.7 -3.75,2.51 -4.45,3.21 -9.49,0.95 -7.71,-3.46 -17.19,-4.28 -25.47,-2.04l-7.17 2.22c0,-0.95 -0.02,-1.92 -0.02,-2.87 0.01,-4.03 2.3,-1.13 2.3,-9.09 0,-3.83 -4.16,-8.54 -9.11,-8.54 -6.04,0 -10.25,4.09 -10.25,9.11z"/>
   <polygon class="fil0" points="33.87,116.7 63.19,116.7 63.19,111.57 33.87,111.57 "/>
   <polygon class="fil0" points="33.87,136.05 63.19,136.05 63.19,131.21 33.87,131.21 "/>
  </g>
 </g>
</svg>
