<?xml version="1.0" encoding="UTF-8"?>
<!DOCTYPE svg PUBLIC "-//W3C//DTD SVG 1.1//EN" "http://www.w3.org/Graphics/SVG/1.1/DTD/svg11.dtd">
<!-- Creator: CorelDRAW 2020 (64 Bit) -->
<svg xmlns="http://www.w3.org/2000/svg" xml:space="preserve" width="13mm" height="13mm" version="1.1" style="shape-rendering:geometricPrecision; text-rendering:geometricPrecision; image-rendering:optimizeQuality; fill-rule:evenodd; clip-rule:evenodd"
viewBox="0 0 398.79 398.79"
 xmlns:xlink="http://www.w3.org/1999/xlink"
 xmlns:xodm="http://www.corel.com/coreldraw/odm/2003">
 <defs>
  <style type="text/css">
   <![CDATA[
    .fil0 {fill:#144170}
   ]]>
  </style>
   <clipPath id="id0">
    <rect width="398.79" height="398.79"/>
   </clipPath>
 </defs>
 <g id="Camada_x0020_1">
  <metadata id="CorelCorpID_0Corel-Layer"/>
  <g style="clip-path:url(#id0)">
   <image id="link.png" x="-0" y="0" width="398.78" height="398.78" xlink:href="Link-icon_Images\Link-icon_ImgID1.png"/>
  </g>
  <g id="_2213742616816">
   <path class="fil0" d="M168.24 101.26c0,12.24 14.18,3.37 42.35,12.17 3.58,1.12 6.09,2.63 9.81,3.46 4.76,1.06 5.79,-0.67 8.79,-3.75l40.5 -40.51c8.72,-8.72 18.6,-18.89 35.63,-18.89 34.57,0 49.82,38.69 32.73,62.33 -3.47,4.81 -10.87,12 -15.01,16.14 -8.81,8.8 -70.2,70.86 -78.01,76.99 -13.96,10.95 -34.27,10.76 -48.44,0 -8.98,-6.82 -9.56,-10.59 -25.24,-10.59 -17.14,0 -35.53,25.64 -15,46.16 5.46,5.46 10.52,8.86 16.71,12.89 11.52,7.5 31.46,13.44 45.81,13.44 2.94,0 3.75,-0.59 6.28,-0.78 8.95,-0.69 9.61,-0.15 20.02,-2.57 9,-2.09 22.88,-8.79 30.12,-14.27l8.23 -6.57c2.99,-2.3 89.05,-87.49 95.49,-96.12l6.02 -8.78c10.21,-17.25 13.77,-29.9 13.77,-52.44 0,-12.61 -4.32,-27.42 -8.56,-35.83 -7.49,-14.82 -16.51,-26.59 -29.93,-36.28 -14.86,-10.73 -31.65,-16.49 -48.72,-17.46l-10.42 0c-15.21,0.86 -30.39,5.49 -44.37,13.77 -15.66,9.27 -47.94,44.16 -60.31,56.53l-22.2 22.2c-2.29,2.29 -6.03,4.75 -6.03,8.76z"/>
   <path class="fil0" d="M-0 302.21c0,22.78 4.39,39.26 16.82,57.18 1.6,2.31 2.94,4.17 4.8,6.11 2.26,2.37 3.1,3.93 5.43,6.25 2.25,2.25 3.64,2.92 5.87,5.04 2.02,1.93 3.88,3.34 6.04,4.87 14.89,10.54 31.67,16.22 48.71,17.14l9.88 0c15.26,-0.82 30.47,-5.43 44.47,-13.77 15.56,-9.27 58.13,-54.35 74.71,-70.94 3.59,-3.59 21.73,-17.64 10.12,-22.97 -2.37,-1.09 -4.83,-0.4 -7.86,-0.71 -13.9,-1.43 -15.38,-0.85 -29.56,-4.71 -18.68,-5.07 -12.19,-8.45 -33.45,12.81 -5.24,5.24 -13.12,12.18 -17.45,17.6 -3.96,4.96 -12.33,13.8 -17.35,17.7 -4.32,3.36 -5.38,4.81 -10.56,7.36 -24.47,12.04 -59.32,-2.85 -56.89,-40.5 0.3,-4.68 3.06,-11.77 5.13,-15.15 6.22,-10.14 59.94,-62.01 69.46,-71.52 8.03,-8.03 21.11,-23.26 32.1,-28.65 13.37,-6.56 29.8,-4.5 41.21,4.02 3.08,2.29 5.49,4.91 8.68,6.89 22.02,13.66 50.18,-8.94 38.17,-33.5 -3.34,-6.82 -6.24,-8.41 -11.12,-13.03 -5.01,-4.75 -18.77,-12.45 -25.95,-15.33 -29.23,-11.7 -63.95,-7.06 -89.25,11.91 -14.62,10.97 -75,73.28 -90.82,89.1 -16.85,16.85 -31.35,39.12 -31.35,66.79z"/>
  </g>
 </g>
</svg>
