<?xml version="1.0" encoding="UTF-8"?>
<!DOCTYPE svg PUBLIC "-//W3C//DTD SVG 1.1//EN" "http://www.w3.org/Graphics/SVG/1.1/DTD/svg11.dtd">
<!-- Creator: CorelDRAW 2020 (64 Bit) -->
<svg xmlns="http://www.w3.org/2000/svg" xml:space="preserve" width="13mm" height="13mm" version="1.1" style="shape-rendering:geometricPrecision; text-rendering:geometricPrecision; image-rendering:optimizeQuality; fill-rule:evenodd; clip-rule:evenodd"
viewBox="0 0 186.51 186.51"
 xmlns:xlink="http://www.w3.org/1999/xlink"
 xmlns:xodm="http://www.corel.com/coreldraw/odm/2003">
 <defs>
  <style type="text/css">
   <![CDATA[
    .fil0 {fill:#144170}
   ]]>
  </style>
    <clipPath id="id0">
     <rect width="186.51" height="186.51"/>
    </clipPath>
 </defs>
 <g id="Camada_x0020_1">
  <metadata id="CorelCorpID_0Corel-Layer"/>
  <g id="_2178906556000">
   <g style="clip-path:url(#id0)">
    <image id="customer-service.png" x="-0" y="0" width="186.51" height="186.51" xlink:href="ouvidoria-icon_Images\ouvidoria-icon_ImgID1.png"/>
   </g>
   <g>
    <path class="fil0" d="M65.12 156.73c0.82,-1.18 2.67,-2.66 3.73,-3.37l13.57 13.39c-0.96,1.39 -2.42,2.49 -3.73,3.37l-13.57 -13.39zm-2.47 29.78l-2.19 0c-4.07,-0.2 -8.01,-1.54 -11.17,-4.12 -2.99,-2.45 -5.15,-4.75 -7.85,-7.45 -6.04,-6.04 -34.66,-33.9 -37.87,-38.63 -4.38,-6.44 -4.52,-14.22 -1.02,-21.21 2.21,-4.41 15.13,-17.23 17.22,-18.66l22.49 22.68c-1.7,1.14 -4.95,4.77 -6.65,6.46 -3.26,3.26 -6.1,4.72 -6.1,7.74 0,1.12 10.13,10.76 10.93,11.29 0.77,-1.6 1.21,-3.46 2.06,-5.23 1.54,-3.2 1.54,-3.14 3.66,-5.45 0.11,-0.12 0.49,-0.55 0.51,-0.58 1.89,-1.97 4.4,-3.77 6.93,-4.73 2.23,-0.84 20.82,-4.7 24.36,-4.78 -0.06,-2.75 -1.01,-1.58 -4.46,-4.65 -5.37,-4.77 -8.36,-9.7 -10.11,-17.21 -4.42,-0.37 -9.47,-5.84 -9.47,-10.57l0 -24.41c0,-7.52 3.59,-15.73 7.65,-21.13 1.59,-2.11 2.59,-3.12 4.46,-5.01 14.45,-14.59 39.55,-14.67 54.46,0.36 3.99,4.03 5.41,6.22 7.98,11.32 2.01,3.99 3.76,9.76 3.76,15.55l0 37.16c0,3.81 -2.03,6.38 -4.51,7.88 -2.86,1.72 -6.48,1.23 -10.79,1.23 -1.2,2.27 -6.15,7.04 -8.74,7.65l0 1.82 17.64 3.12c3.29,0.59 5.39,1 7.96,2.24 12.68,6.13 12.85,23.05 17.75,33.25l-64.57 0.09 4.46 4.28 -10.84 10.29c-2.23,1.96 -6.25,5.67 -8.22,6.71 -3.01,1.6 -6.37,2.51 -9.73,2.67zm-17.11 -36.79c0,-1.86 2.82,-8.42 3.7,-9.78 4.19,-6.43 11.31,-6.81 19.2,-8.12 1.82,-0.3 3.91,-0.69 5.85,-1.07 1.56,-0.31 4.33,-0.94 5.86,-1.06l12.84 13.03 13.12 -12.94 13.18 2.31c4.92,0.93 8.92,1.21 12.72,3.31 3.49,1.93 5.52,4.78 6.85,8.81l3.96 12.07 -58.29 0c-5.29,0.03 -3.45,0.37 -9.93,-6.1 -1.55,-1.54 -4.29,-3.94 -5.37,-5.56 -0.74,0.49 -0.71,0.59 -1.37,1.18l-4.45 3.93c-6.17,4.71 -7.91,10.29 -12.3,5.74l-5.55 -5.74zm38.89 -24.32c3.13,0.17 3.13,1.01 9.56,1.01 3.19,0 5.03,-0.88 7.65,-1.09l-8.65 8.83 -8.55 -8.75zm-72.41 -12.83l13.93 13.75c-0.83,1.19 -1.31,1.24 -1.92,2.63 -1.4,3.17 -0.82,6.85 1.3,9.65 1.21,1.59 2.35,2.56 3.72,3.93 2.64,2.64 5.01,5.01 7.65,7.65 2.64,2.64 5.01,5.01 7.65,7.65 3.62,3.62 6.92,7.38 13.17,4.98 1.29,-0.5 1.63,-1.09 2.95,-1.79l13.57 13.39c-1.05,1.52 -3.31,3.2 -4.83,4.09 -4.05,2.36 -9.92,2.49 -14.09,0.26 -4.65,-2.5 -24.69,-23.56 -28.8,-27.67l-16.01 -16.04c-4.47,-5.27 -5.14,-11.57 -1.94,-17.76 0.92,-1.76 2.57,-3.1 3.65,-4.72zm4.65 -4.28l2.92 -3.09 13.65 13.47 -2.92 3.09 -13.65 -13.47zm104.27 -0.09c0.11,-1.35 0.31,-1.25 0.67,-2.24 1.07,-2.94 -0.34,-3.93 4.43,-5.04 0,1.85 0.29,4.6 -0.34,5.85 -0.82,1.62 -2.4,1.43 -4.76,1.43zm-6.92 0l-21.13 0 0 6.19 15.66 0c-11.69,10.16 -29.83,6.63 -36.8,-7.28 -1.18,-2.35 -2.55,-5.61 -2.55,-9.11l0 -16.76c4.11,-0.09 10.61,-2.22 13.48,-3.64 7.28,-3.59 7.28,-4.97 10.2,-6.93 5.05,3.38 2.78,3 10.32,6.8 3.21,1.62 9.23,3.66 13.72,3.77 0,5.68 0.54,16.91 -0.87,21.71 -0.57,1.93 -1.66,3.6 -2.04,5.24zm-53.91 -17.85c0,-2.62 1,-3.82 2.91,-5.1l0 9.84c-1.86,-0.5 -2.91,-2.39 -2.91,-4.74zm63.02 4.74l0 -9.84c1.36,0.91 2.91,2.5 2.91,4.74 0,2.31 -1.05,4.6 -2.91,5.1zm-55.74 -20.04l-4.37 0c0,3.51 0.44,3.59 -2.91,4.37 0,-13.29 -0.93,-20.17 7.28,-30.97 4.48,-5.89 13.61,-11.22 21.19,-11.96 4.78,-0.47 8,-0.58 12.92,0.83 11.79,3.37 20.91,12.44 23.61,24.11 1.28,5.55 0.94,11.73 0.94,18.36 -0.99,-0.52 -1.56,-0.98 -2.91,-1.09l0 -3.64c-8.29,0 -12.02,-0.3 -19.19,-4.13 -3.09,-1.64 -8.91,-6.34 -10.68,-8.99 -3.9,2.61 -11.13,13.11 -25.86,13.11z"/>
    <path class="fil0" d="M148.63 47.72c0,-3.89 1.51,-7.91 1.82,-11.66 -3.52,0 -7.04,0 -10.57,0 -3.82,0 -7.65,0.55 -7.65,-3.28l0 -23.68c0,-1.76 1.15,-2.91 2.92,-2.91l42.26 0c2.21,0 2.91,1.84 2.91,4.01l0 21.86c0,6.98 -8.85,2.65 -13.3,4.19l-18.39 11.48zm-22.59 -38.62l0 24.41c0,3.63 2.56,6.39 5.03,7.72 2.83,1.52 7.91,1.02 12.09,1.02 -0.7,1.46 -2.51,16.24 -3.28,17.85 1.4,-0.12 1.93,-0.83 2.93,-1.44l22.86 -14.29c6.59,-4.15 4.31,-1.56 12.08,-2.12 5.02,-0.37 8.75,-4.4 8.75,-9.83l0 -22.22c0,-3.19 -0.86,-5.1 -2.17,-6.94 -1.04,-1.47 -3.72,-3.26 -6.21,-3.26l-43.71 0c-4.19,0 -8.38,3.94 -8.38,9.11z"/>
    <path class="fil0" d="M11.29 73.58c-1.15,-0.77 -5,-7.54 -5.83,-9.11 -1.76,0.93 -3.28,1.95 -5.1,2.91 0.13,1.56 9.76,17.26 10.56,17.85 1.38,-0.37 15.79,-9.75 17.49,-10.2 -0.28,-1.19 -2.07,-3.86 -2.91,-5.46 -1.16,0.31 -2.92,1.57 -3.99,2.21 -1.07,0.64 -2.73,1.87 -4.03,2.17 0.56,-6.73 8.42,-21.3 13.01,-27.43 1.28,-1.71 2.54,-3.05 3.75,-4.63 6.64,-8.62 18.36,-16.08 28.53,-20.64 14.58,-6.53 32.89,-7.59 48.84,-3.92 1.75,0.4 2.92,0.85 4.59,1.24 0.72,-1.5 1.4,-4.02 1.82,-5.83 -3.4,-1.63 -13.94,-3.28 -18.23,-3.62 -18.42,-1.49 -37.84,3.65 -52.07,13.1 -14.47,9.61 -22.91,19.23 -30.72,34.85 -1.76,3.53 -5.62,12.67 -5.71,16.51z"/>
    <path class="fil0" d="M173.4 67.03l0 0zm0 0c2.06,0.55 6.31,4.17 8.74,4.74 0.51,-2.19 2.36,-3.21 2.55,-5.46 -2.06,-1.09 -16.18,-10.06 -17.85,-10.2 -0.3,1.3 -4.08,7.23 -5.03,8.81 -1.01,1.67 -4.87,7.73 -5.17,9.04 1.83,0.49 3.63,2.42 5.46,2.91 0.27,-1.16 4.17,-7.69 5.1,-8.38 0.34,1.47 0.85,2.93 1.31,4.52 5.02,17.62 2.64,38.61 -5.43,54.73 -1.41,2.82 -2.65,5.2 -4.32,7.7 -0.84,1.25 -1.45,2.22 -2.33,3.5 -0.91,1.32 -1.94,2.35 -2.7,3.49 0.42,0.57 1.48,1.35 2.14,1.87 0.85,0.68 1.52,1.48 2.6,1.77 1.32,-0.88 4.56,-5.66 5.54,-7.22 1.75,-2.8 3,-5.13 4.54,-8.21 2.99,-5.98 5.04,-11.51 6.75,-18.74 3.1,-13.07 2.73,-26.31 -0.58,-39.64 -0.45,-1.8 -1.17,-3.5 -1.31,-5.24z"/>
    <polygon class="fil0" points="138.06,18.21 174.49,18.21 174.49,12.02 138.06,12.02 "/>
    <polygon class="fil0" points="138.06,30.24 162.47,30.24 162.47,24.04 138.06,24.04 "/>
    <polygon class="fil0" points="168.3,30.24 174.49,30.24 174.49,24.04 168.3,24.04 "/>
   </g>
  </g>
 </g>
</svg>
