<?xml version="1.0" encoding="UTF-8"?>
<!DOCTYPE svg PUBLIC "-//W3C//DTD SVG 1.1//EN" "http://www.w3.org/Graphics/SVG/1.1/DTD/svg11.dtd">
<!-- Creator: CorelDRAW 2020 (64 Bit) -->
<svg xmlns="http://www.w3.org/2000/svg" xml:space="preserve" width="13mm" height="11.7669mm" version="1.1" style="shape-rendering:geometricPrecision; text-rendering:geometricPrecision; image-rendering:optimizeQuality; fill-rule:evenodd; clip-rule:evenodd"
viewBox="0 0 224.82 203.49"
 xmlns:xlink="http://www.w3.org/1999/xlink"
 xmlns:xodm="http://www.corel.com/coreldraw/odm/2003">
 <defs>
  <style type="text/css">
   <![CDATA[
    .fil0 {fill:#144170}
   ]]>
  </style>
 </defs>
 <g id="Camada_x0020_1">
  <metadata id="CorelCorpID_0Corel-Layer"/>
  <g id="_2213861183504">
   <path class="fil0" d="M79.92 185.49c0,-13.08 13.31,-11.42 21.95,-11.42 16.16,0 14.05,10.52 14.05,21.52l-26.35 0c-5.04,0 -9.66,-5.04 -9.66,-10.1zm144.9 -78.16l0 9.69c-0.19,5.33 -1.06,10.05 -4.47,15.7 -3.92,6.49 -1.71,1.25 -3.24,9.94 -2,11.41 -9.29,21.35 -19.5,26.6 -4.45,2.29 -0.7,-1.22 -6.54,3.56l-9.22 7.03c-2.59,1.92 -5.22,3.41 -8.05,5.12 -24.91,15.04 -48.44,18.53 -78.95,18.53 -13.2,0 -22.39,-5.87 -22.39,-19.32 0,-7.63 7.29,-15.79 12.73,-16.25l-15.43 -13.11c-1.02,-0.82 -2.09,-1.71 -3.11,-2.6l-12.14 -10.26c-9.66,-7.82 -21.6,-18.63 -30.55,-25.66 -4.2,-3.3 -8.19,-6.73 -11.48,-10.91 -7.47,-9.5 -11.72,-20.88 -12.48,-32.32l0 -7.42c0.63,-9.35 3.65,-18.48 9.22,-26.39 8.14,-11.56 18.97,-19.73 33.02,-23.19 9.93,-2.45 22.98,-2.14 32.36,0.85 5.87,1.87 11.6,5.34 12.78,5.66 0.16,-1.91 1.55,-3.7 2.75,-4.72l12.92 -8.15c35.9,-19.97 77.37,-8 97.42,25.35 9.74,16.2 9.85,27.98 9.85,46.79 7,3.71 14.49,14.65 14.49,25.47zm-43.47 51.37c0,6.59 0.8,5.17 3.51,9.22 -1.67,2.27 -9.74,7.24 -12.74,9.22 -2.14,1.42 -4.49,2.75 -6.88,4.09 -5.96,3.33 -16.76,7.68 -23.41,9.52 -5.21,1.44 -12.5,3.46 -18.44,3.95 0,-7.99 1.05,-17.86 -6.13,-23.29 -1.54,-1.17 -4.2,-3.3 -6.6,-3.5l24.25 -20.54c3.46,-3.01 22.51,-19.25 24.49,-20.3 0,5.36 -0.54,14.35 0.04,19.28 1.5,12.57 18.78,12.34 21.03,2.68l7.9 0c-1.04,0.9 -7.03,3.3 -7.03,9.66zm-14.49 -14.49l0 -64.11c0,-5.17 7.03,-4.04 7.03,-0.88l0 65.86c0,4.38 -7.03,5.5 -7.03,-0.88zm25.47 18.88c-2.47,0 -3.51,-1.51 -3.51,-3.51 0,-3.8 3.64,-2.74 8.89,-8.67 0.66,-0.75 1.34,-2.1 1.83,-2.56 0.52,-0.49 5.98,-2.28 9.48,-4.13 -1.05,4.5 -3.54,8.34 -6.08,11.49 -1.52,1.88 -7.78,7.39 -10.61,7.39zm10.98 -49.18c0,-8.65 2.94,-16.88 9.22,-20.2 5.85,11.06 4.83,10.02 4.83,23.71 0,4.68 -2.6,11.82 -5.27,13.61 -4.32,-2.89 -8.78,-9.88 -8.78,-17.13zm-7.47 -3.95c0,9.81 1.07,16.09 7.77,23.41l3.21 3.38c-7.97,5.34 -14.99,4.83 -25.47,4.83l0 -57.96c8.02,0 15.11,-0.87 22.26,2.77 1.21,0.62 2.04,1.31 3.21,1.62l0 0.88c-4.51,1.2 -10.98,13.83 -10.98,21.08zm-97.04 56.64c-5.08,0 -7.75,-3.85 -13.23,-8.28l-42.2 -35.52c-8.21,-7.64 -23.74,-17.87 -29.16,-27.92 -0.81,-1.49 -1.39,-2.17 -2.04,-3.67 -7.21,-16.57 -6.47,-33.66 3.91,-48.61l5.11 -6.31c3.29,-3.37 9.13,-7.34 13.36,-9.47 9.52,-4.78 15.83,-4.68 26.06,-4.68 7.84,0 15.68,3.03 20.93,5.85 7.37,3.96 4.76,3.6 6.31,6.87 1.26,2.66 4.36,5.28 8.33,5.28 8.1,0 19.71,-18 41.27,-18 11.26,0 17.84,1.01 27.47,6.78 1.47,0.88 2.12,1.24 3.46,2.25 11.48,8.69 20.01,22.36 20.01,37.52l0 7.46 -7.9 0c-2.02,-8.68 -16.06,-10.36 -20.21,-0.45 -2.03,4.84 -0.19,33.65 -0.86,39.98 -0.31,2.89 -8.31,7.9 -12.2,11.51 -1.19,1.11 -1.89,1.59 -3.07,2.64l-41.29 34.68c-0.97,0.87 -2.42,2.09 -4.05,2.09zm-4.39 -135.68c0,-8.25 -2.02,-6.02 8.36,-12.28 14.86,-8.95 22.22,-11 39.94,-11 12.35,0 29.3,7.07 37.65,15.04 5.3,5.05 4.18,3.16 9.83,10.36 3.14,4 7.07,11.11 8.67,15.92 1.36,4.1 2.63,8.03 3.39,12.86 0.79,5.02 0.61,10.46 0.61,16.07 -8.61,-2 -7.12,-1.1 -7.05,-4.8 0.22,-12.51 -1.36,-18.86 -6.71,-29.3 -7.96,-15.54 -25.22,-27.23 -42.94,-29.07 -7.5,-0.77 -14.99,0.04 -21.37,1.78 -5.84,1.59 -11.8,4.6 -16.43,7.72 -4,2.7 -13.96,11.57 -13.96,6.68z"/>
   <path class="fil0" d="M101.43 119.63c-11.28,0 -10.54,0.98 -10.54,-9.22 0,-15.66 2.93,-12.73 -12.74,-12.73 -10.02,0 -9.22,1.05 -9.22,-10.1 0,-2.12 1.25,-3.95 3.51,-3.95l18.44 0 0 -18.44c0,-5.42 11.45,-3.37 12.44,-2.78 0.74,0.44 1.61,1.39 1.61,2.34l0 18.88 18 0c4.92,0 3.95,5.18 3.95,9.66 0,5.2 -3.36,4.39 -8.34,4.39 -17.2,-0.01 -13.61,-2.56 -13.61,12.29 0,4.53 1.05,9.66 -3.51,9.66zm-18 -55.33l0 11.85 -10.98 0c-6.41,0 -10.98,4.98 -10.98,11.42 0,6.56 -0.85,10.89 3.84,15.04 4.35,3.85 11.34,2.96 18.12,2.96l0 11.42c0,5.08 5.07,10.1 10.1,10.1l8.78 0c5,0 10.1,-5.09 10.1,-10.1l0 -11.42c6.66,0 13.82,0.88 18.12,-2.96 4.57,-4.07 3.83,-9.22 3.83,-15.05 0,-6.27 -4.69,-11.42 -10.98,-11.42l-10.98 0c0,-7.32 1.32,-15.36 -3.68,-19.16 -6.67,-5.07 -25.3,-4.24 -25.3,7.3z"/>
   <path class="fil0" d="M14.49 67.81c0,8.04 0.36,12.52 3.66,19.62 1.47,3.16 5.45,9.72 8.2,11.56l5.17 -4.93c-1.85,-2.86 -4.09,-4.17 -6.49,-9.56 -5.71,-12.83 -3.41,-28.07 6.25,-37.66 5.29,-5.25 13.63,-10.21 21.85,-10.21l5.27 0 0 -7.46c-8.45,0 -12.79,-0.02 -20.64,3.95 -12.57,6.35 -23.27,19.63 -23.27,34.69z"/>
   <path class="fil0" d="M33.81 105.57l3.61 2.97c1.39,1.24 2.32,2.15 3.85,3.18 1.35,-2.02 3.21,-3.48 4.39,-5.71 -0.75,-1.13 -5.95,-5.74 -7.46,-6.15 -0.45,1.69 -3,3.63 -4.39,5.71z"/>
   <polygon class="fil0" points="86.94,141.58 94.41,141.58 94.41,134.12 86.94,134.12 "/>
   <polygon class="fil0" points="115.92,141.58 123.39,141.58 123.39,134.12 115.92,134.12 "/>
   <polygon class="fil0" points="72.45,141.58 79.92,141.58 79.92,134.12 72.45,134.12 "/>
   <polygon class="fil0" points="101.43,141.58 108.9,141.58 108.9,134.12 101.43,134.12 "/>
  </g>
 </g>
</svg>
