<?xml version="1.0" encoding="UTF-8"?>
<!DOCTYPE svg PUBLIC "-//W3C//DTD SVG 1.1//EN" "http://www.w3.org/Graphics/SVG/1.1/DTD/svg11.dtd">
<!-- Creator: CorelDRAW 2020 (64 Bit) -->
<svg xmlns="http://www.w3.org/2000/svg" xml:space="preserve" width="13mm" height="13mm" version="1.1" style="shape-rendering:geometricPrecision; text-rendering:geometricPrecision; image-rendering:optimizeQuality; fill-rule:evenodd; clip-rule:evenodd"
viewBox="0 0 750.18 750.18"
 xmlns:xlink="http://www.w3.org/1999/xlink"
 xmlns:xodm="http://www.corel.com/coreldraw/odm/2003">
 <defs>
  <style type="text/css">
   <![CDATA[
    .fil0 {fill:#144170}
   ]]>
  </style>
   <clipPath id="id0">
    <rect width="750.18" height="750.18"/>
   </clipPath>
 </defs>
 <g id="Camada_x0020_1">
  <metadata id="CorelCorpID_0Corel-Layer"/>
  <g style="clip-path:url(#id0)">
   <image id="phone-call.png" x="-0" y="0.01" width="750.18" height="750.18" xlink:href="telefone-icon_Images\telefone-icon_ImgID1.png"/>
  </g>
  <g id="_2213517325984">
   <path class="fil0" d="M189.01 310.62c0,11.9 12.68,35.11 17.86,43.68 18.52,30.65 26.62,42.13 51.44,71.64l53.38 55.04 42.89 34.77c20.54,15.46 34.66,23.94 57.15,35.15 12.99,6.48 26.81,14.93 44.01,3 16.06,-11.14 61.6,-70.39 80.52,-70.39 19.68,0 24.48,10.56 39.93,26.01l60.07 60.07c17.62,17.62 39.19,35.16 11.73,62.28l-37.85 38.34c-51.01,66.07 -128.93,29.26 -192.35,3.57 -31.55,-12.78 -91.55,-50.33 -119.31,-71.17l-31.19 -24.48c-3.79,-2.97 -6.73,-5.48 -10.45,-8.6 -14.48,-12.15 -46.3,-44.19 -57.97,-56.32l-34.31 -40.42c-11.56,-14.29 -22.22,-28.76 -32.69,-43.5 -41.44,-58.36 -87.92,-148.58 -87.92,-222.71 0,-42.84 33.74,-66.7 65.57,-98.53 39.3,-39.3 46.65,-21.49 93.05,24.91 11.13,11.13 45.7,44.56 53.02,53.94 22.34,28.64 6.09,38.59 -19.33,64.01l-39.62 39.5c-4.33,5.26 -7.63,11.03 -7.63,20.21zm-189.01 -104.03c0,75.26 39.07,155.57 68.78,205.22 32.94,55.05 72.42,105.46 117.67,150.46l24.14 24.21c20.66,19.89 62.24,52.07 85.08,67.3 7.14,4.76 12.94,8.61 20.22,13.48 57.19,38.3 153.55,82.93 220.37,82.93 35.95,0 65.51,-9.28 89.04,-32.57l18.25 -19.84c19.75,-19.96 41.65,-37.4 53.79,-60.49 16.64,-31.63 3.46,-64.95 -18.59,-86.74l-83.52 -83.51c-24.19,-24.2 -56.14,-38.67 -90.4,-17.88l-69.67 65.13c-10.07,-6.75 -21.35,-10.75 -31.95,-17.87 -65.98,-44.32 -118.82,-98.32 -159.73,-165.54 -3.57,-5.87 -5.93,-11.4 -9.05,-17.32 5.76,-3.86 57.1,-55.16 63.89,-66.52 9.79,-16.39 10.84,-25.52 10.84,-43.37 0,-34.01 -44.17,-69.81 -66.3,-91.94 -17.42,-17.42 -31.54,-32.41 -49.78,-48.39 -4.52,-3.96 -6.48,-5.51 -11.66,-8.85 -26.29,-16.91 -49.54,-13.58 -74.97,-0.78 -13.17,6.63 -39.57,35.46 -51.87,47.76 -17.37,17.37 -22.97,21.11 -37.01,42.11 -9.52,14.22 -17.57,39.14 -17.57,63.02z"/>
   <path class="fil0" d="M394.14 17.58c0,8.22 -0.7,14.12 7.26,20.58 3.87,3.14 8.86,4.53 14.81,5.7 75.02,14.79 136.85,46.94 190.75,100.82 3.58,3.58 7.07,6.6 10.1,10.4 3.77,4.72 5.91,6.54 9.61,10.91 11.15,13.18 26.66,34.21 34.64,48.88l21.47 41.53c14.28,32.07 15.84,50.44 23.69,80.33 8.26,31.44 43.71,18.77 43.71,0.25 0,-18.28 -14.28,-63.9 -21.55,-82.47 -9.41,-24.04 -20.48,-47.92 -34.39,-69.63 -10.79,-16.83 -23.61,-33.27 -36.14,-48.84 -10.3,-12.8 -39.6,-40.76 -52.77,-51.25 -50.02,-39.83 -107.35,-68.99 -170.53,-81.48 -5.68,-1.13 -11.36,-2.83 -16.8,-3.31l-5.4 0c-4.08,0.42 -7.98,1.94 -11.58,5.4 -3.51,3.37 -6.86,6.08 -6.86,12.19z"/>
   <path class="fil0" d="M589.01 361.91c13.47,0 24.91,-5.47 24.91,-20.51 0,-22.98 -16.62,-61.78 -24.89,-77.67 -21.39,-41.09 -61.1,-81.99 -102.57,-102.56 -22.55,-11.18 -53.59,-24.9 -80.6,-24.9 -10.58,0 -24.77,15.69 -15.24,32.82 11.44,20.57 42.19,-2.69 118.83,61.38l13.41 14.44c2.52,3.13 4.26,4.28 6.94,7.7 15.89,20.28 30.75,48.51 37.27,74.1 2.63,10.33 4.73,35.2 21.94,35.2z"/>
  </g>
 </g>
</svg>
